/* XPM */
static char *acb27207f34f4966a2dc68c7fe91283cHViFllOQAzGK5M7Z[] = {
/* columns rows colors chars-per-pixel */
"64 64 256 2 ",
"   c black",
".  c #010101",
"X  c #020202",
"o  c gray1",
"O  c #040404",
"+  c gray2",
"@  c #060606",
"#  c #070707",
"$  c gray3",
"%  c #090909",
"&  c gray4",
"*  c #0B0B0B",
"=  c #0C0C0C",
"-  c gray5",
";  c #0E0E0E",
":  c gray6",
">  c #101010",
",  c #111111",
"<  c gray7",
"1  c #131313",
"2  c gray8",
"3  c #151515",
"4  c #161616",
"5  c gray9",
"6  c #181818",
"7  c #191919",
"8  c gray10",
"9  c #1B1B1B",
"0  c gray11",
"q  c #1D1D1D",
"w  c #1E1E1E",
"e  c gray12",
"r  c #202020",
"t  c gray13",
"y  c #222222",
"u  c #232323",
"i  c gray14",
"p  c #252525",
"a  c gray15",
"s  c #272727",
"d  c #282828",
"f  c gray16",
"g  c #2A2A2A",
"h  c gray17",
"j  c #2C2C2C",
"k  c #2D2D2D",
"l  c gray18",
"z  c #2F2F2F",
"x  c gray19",
"c  c #313131",
"v  c #323232",
"b  c gray20",
"n  c #343434",
"m  c #353535",
"M  c gray21",
"N  c #373737",
"B  c gray22",
"V  c #393939",
"C  c #3A3A3A",
"Z  c gray23",
"A  c #3C3C3C",
"S  c gray24",
"D  c #3E3E3E",
"F  c #3F3F3F",
"G  c gray25",
"H  c #414141",
"J  c gray26",
"K  c #434343",
"L  c #444444",
"P  c gray27",
"I  c #464646",
"U  c gray28",
"Y  c #484848",
"T  c #494949",
"R  c gray29",
"E  c #4B4B4B",
"W  c #4C4C4C",
"Q  c gray30",
"!  c #4E4E4E",
"~  c gray31",
"^  c #505050",
"/  c #515151",
"(  c gray32",
")  c #535353",
"_  c gray33",
"`  c #555555",
"'  c #565656",
"]  c gray34",
"[  c #585858",
"{  c gray35",
"}  c #5A5A5A",
"|  c #5B5B5B",
" . c gray36",
".. c #5D5D5D",
"X. c gray37",
"o. c #5F5F5F",
"O. c #606060",
"+. c gray38",
"@. c #626262",
"#. c gray39",
"$. c #646464",
"%. c #656565",
"&. c gray40",
"*. c #676767",
"=. c #686868",
"-. c DimGray",
";. c #6A6A6A",
":. c gray42",
">. c #6C6C6C",
",. c #6D6D6D",
"<. c gray43",
"1. c #6F6F6F",
"2. c gray44",
"3. c #717171",
"4. c #727272",
"5. c gray45",
"6. c #747474",
"7. c gray46",
"8. c #767676",
"9. c #777777",
"0. c gray47",
"q. c #797979",
"w. c gray48",
"e. c #7B7B7B",
"r. c #7C7C7C",
"t. c gray49",
"y. c #7E7E7E",
"u. c gray50",
"i. c #808080",
"p. c #818181",
"a. c gray51",
"s. c #838383",
"d. c #848484",
"f. c gray52",
"g. c #868686",
"h. c gray53",
"j. c #888888",
"k. c #898989",
"l. c gray54",
"z. c #8B8B8B",
"x. c gray55",
"c. c #8D8D8D",
"v. c #8E8E8E",
"b. c gray56",
"n. c #909090",
"m. c gray57",
"M. c #929292",
"N. c #939393",
"B. c gray58",
"V. c #959595",
"C. c gray59",
"Z. c #979797",
"A. c #989898",
"S. c gray60",
"D. c #9A9A9A",
"F. c #9B9B9B",
"G. c gray61",
"H. c #9D9D9D",
"J. c gray62",
"K. c #9F9F9F",
"L. c #A0A0A0",
"P. c gray63",
"I. c #A2A2A2",
"U. c gray64",
"Y. c #A4A4A4",
"T. c #A5A5A5",
"R. c gray65",
"E. c #A7A7A7",
"W. c gray66",
"Q. c #A9A9A9",
"!. c #AAAAAA",
"~. c gray67",
"^. c #ACACAC",
"/. c gray68",
"(. c #AEAEAE",
"). c #AFAFAF",
"_. c gray69",
"`. c #B1B1B1",
"'. c #B2B2B2",
"]. c gray70",
"[. c #B4B4B4",
"{. c gray71",
"}. c #B6B6B6",
"|. c #B7B7B7",
" X c gray72",
".X c #B9B9B9",
"XX c gray73",
"oX c #BBBBBB",
"OX c #BCBCBC",
"+X c gray74",
"@X c gray",
"#X c gray75",
"$X c #C0C0C0",
"%X c #C1C1C1",
"&X c gray76",
"*X c #C3C3C3",
"=X c gray77",
"-X c #C5C5C5",
";X c #C6C6C6",
":X c gray78",
">X c #C8C8C8",
",X c gray79",
"<X c #CACACA",
"1X c #CBCBCB",
"2X c gray80",
"3X c #CDCDCD",
"4X c #CECECE",
"5X c gray81",
"6X c #D0D0D0",
"7X c gray82",
"8X c #D2D2D2",
"9X c LightGray",
"0X c gray83",
"qX c #D5D5D5",
"wX c gray84",
"eX c #D7D7D7",
"rX c #D8D8D8",
"tX c gray85",
"yX c #DADADA",
"uX c gray86",
"iX c gainsboro",
"pX c #DDDDDD",
"aX c gray87",
"sX c #DFDFDF",
"dX c gray88",
"fX c #E1E1E1",
"gX c #E2E2E2",
"hX c gray89",
"jX c #E4E4E4",
"kX c gray90",
"lX c #E6E6E6",
"zX c #E7E7E7",
"xX c gray91",
"cX c #E9E9E9",
"vX c #EAEAEA",
"bX c gray92",
"nX c #ECECEC",
"mX c gray93",
"MX c #EEEEEE",
"NX c #EFEFEF",
"BX c gray94",
"VX c #F1F1F1",
"CX c gray95",
"ZX c #F3F3F3",
"AX c #F4F4F4",
"SX c gray96",
"DX c #F6F6F6",
"FX c gray97",
"GX c #F8F8F8",
"HX c #F9F9F9",
"JX c gray98",
"KX c #FBFBFB",
"LX c gray99",
"PX c #FDFDFD",
"IX c #FEFEFE",
"UX c white",
/* pixels */
" X+X+X+X+X'.{.F.(.P.c..X`..X@.I C.e.D W.t.' P.G.(.2X'.,X4X<XqXJ. XsX>.1.;X-XQ.NXGXHXUX7X8XNXwX2   .                             ",
"+XoX+X#X+XXXOXl._.b.{ XX[.{.p T a.M K (.| <.K.k.].;X`.3X3X6XXXZ.9X,XS b P.:XT.gXCXJXUX%X X1XfXz   X                             ",
"#X%X$X*X,X`.N.e.}.:.l }..XY.j j.(.| v.*X} p.-X~.@X.X!.1X:XtXu.{.dXL.u J yX0Xn.fXCXJXUXQ.XX[.fXE   X                             ",
"+X).oX}.E.U.f.3.|.R p J.=XB.V }.}.X.^.W.a ( 6XV.>XE.E.4XwXU.z.eXiX[ / ..^.fXN.eXZXHXUXv.eXW.hX+.  X                             ",
"+XL.). X X;X6.e.H.' d 0.,Xz.@.<XI.^ *X}   d {.K.1XG.OX6X*X2.>X9XeXl Q.0.8.CXT.9XDXLXHXs.BXC.kX4.  X                             ",
"+XQ.XX*X*XoXD i.2.f.e ~ >Xg.a.&XT.z.g.=.C o G.@X+XZ.-XqX-.V.qXrX[...uXI.G zX~.6XZXJXzXi.UXM.nX>.  X                             ",
"#XY.OX$X:XG.7 j.[  XL C ;Xw.F.>XC.7.1.]./.8 #.,X`.W.3X|.$.:X:XBX9.Y g.k.7 %X'.3XVXhX3X,.UXb.NX[   X                             ",
"&XC.`.$X,X-.h c.0.=Xd.L ].3.z.A.3.3.Y.+X<Xp.j  XT.OX5XV.(.4XiXgXl v.T.y.< Y.;X5XSXsX/.X.UX3.vX}   .                             ",
"%Xz.P.$X+Xl m m.H. X^. .S.P c p.F.S.N.v.F.].,.x.U.<X].K.#X XUXk.1.I.a.w.* +.7X5XFXwXl.=.sX_ fXC   .                             ",
"%Xw.z.<XZ.q +.U.].[.T.N l A A.U.J.m.T.Y.K.XXR.q..X$XS.2Xh./.8X| S.;.t.<.< f .XqXGX4X,.,.@XA W.5   .                             ",
"@Xw.h.;X( *.i.R.W.d.] r # 9 z s y 7 s D t.R.~.z.<Xf.).+X>.<Xh.-.).d.^ m g % 5.eXGX{.9.8.N.B i.  X                               ",
"|.j.z.^.H W.0.T.8.l : $ , ; & * - : -   z U.~.oXf.r.wXg.4.*XU U.` > @ * - 7 7 }.NXK.| 7.d.v )   o       X o O O O o X           ",
" Xz.r.6.+.$XL.p.a < A %.q ; > , > : > g : u.!.P.>.].N.:.~.) R G   , 1 , h ^ ; k.4X9.Z b.| = 7   .   X X               X o       ",
"[.N.:.X.P.A.K w P j.]./.i & 5 < 2 6 O 6.| 1.A.I.L.q.-.N.2.J 1 N O.& , = N 5.x 2.~.R } J.x O @   . X     e ] r.k.y.} u     X .   ",
"`.!.} &.N.d U i.Q.]. XR.w u V 2 8 7.n Z.~.!.`.T.t.M.K.y.4.#XI (.x.w < 3 g | n K f.a @.@.p   X . o   b E.CXUXUXUXUXUXAXXXE   . X ",
"J.|.W l.{.T.4.I L.#XoXG.( o.S.c.T.z.d.+XH.oX[.p.{.oXm._.>XyXR.i.~.u } ' n $.j 2 S r D 9 1   X . O s.JXUXPXHXFXGXGXGXLXUXUXQ.3   ",
"8.&X/ N.oX XE.u.<.e.+XZXuXM.x.`.R.P.kXD.I.{.F.@X<X^.$X5X5X5XtXg.g.-.' z.n P B - ; 2 < j X .   = (.UXJXFXJXKXKXKXKXKXJXGXGXUX9Xg ",
"U (.4.K.}.'.[.OX_.2.4.U.W.H.X.a.a.s.]  .C.=X XZ.|.:X1X2X7X8X7X4X+.,.) W A i g > = 5 O 5   . o /.UXDXJXKXKXKXKXKXKXKXKXKXKXFXUXtX",
"B l.D.W.XX[.[.{.[.}./.v.s.g.5.{ ` R d.(.%X;X#XXX-X:X>X5XqXwXqXtX=Xz 5 D A 2 H ; # <     o   f.UXDXKXKXKXKXKXKXKXKXKXKXKXKXKXHXLX",
"W 7.P.Q. X[.{.|.'.)./.G.!.[.N.E.U.#X9X;X#X%X=X>X=X;X<X3X8X7X9X4XdXI.< N A 2 0 i   X   o   G LXJXJXKXKXKXKXKXKXKXKXKXKXKXKXKXKXJX",
"a.e.y.T. X].}.[.{.}.|.XXOX'.K.B.Y.OX{.+X-X>X;X<X-X-X<X4X7X8X0X9X9XjXF.5 F 2 X X     .   + ;XUXGXKXKXKXKXKXKXKXKXKXKXKXKXKXKXKXKX",
"G.(.2.B.oX}.{.{.{. XoX5XtXrX-X$X}.B.F.E.'.E.Q.{.;X:X<X5X7XqX0X0X9X9XfXT.K # . .     o   | UXGXKXKXKXKXKXKXKXKXJXKXKXKXKXKXKXKXKX",
"U.$Xv.4.$X|.|.|..X|.XXoX<XMXUXIXBXxXvXxXvXnXFXyX&X>X1X6X0XrXrXrXeXuXwXcXT.< . .     .   %XUXGXKXKXKXKXKXJXPXLXPXJXJXKXKXKXKXKXKX",
"K.[./.f.'.|.|. X.X[.|.[.|.|.4XCXIXUXUXUXIXIXLXUXbX,X2X7XqXeXtXeXtXyXrXtXUXOXe X . o   A PXJXKXKXKXKXKXKXIXZXCXlXPXHXKXKXKXKXKXKX",
"(.].].'.{.XX}..X}.[.|.{. XXX{.$XpXBXGXIXPXKXKXLXGX4X<X9X9XwXqXwXqXtXrXvXFXUXR.# . O   c.UXFXKXKXKXKXHXUX%X+.{.@X<XOX_.UXGXKXKXKX",
"|. X.X.XoX.X X X}.}.|.].}.OX{.oXXX@X;XtXnXGXKXMX<X*X,X9XwX8X9XwX9XtXwXMXPXPXgX9     # 7XUXHXKXKXKXKXKXUXnX(.LXDXt.r.z.UXHXKXKXKX",
" X+X%X@XOX.XOXOX.X.X|.{. X.X|.OXOXOX+XoX#X2X6X,X;X-X<X9XwX0XqXqX0XrXyXFXDXUX<X: .   l GXLXJXKXKXKXKXHXIXyX1.bXrXI.x./.fXIXJXKXKX",
"oX+X#X%X$XoX]..X+X@XOX XoXOX{.XX+X+X$X=X%X=X;X>X>X>X<X8XtXiXeX9XyXgXyX5XfXIX)   +   ..UXGXKXKXKXKXKXPXUXxXaXIXVXCXAXSXKXUXKXKXKX",
"oX.X+X#X&X}.].XX.X.XXX{.oXoX{.|..X+XOX@X&X-X:X>X-X=X,X8X7X6XjXsXjXDXCXPXhX_   X o   j.UXFXKXKXKXJXUXiXv.7X-XV.UX0X;XUX'.B.BXPXJX",
"|.{.+X@X&X#X@X%X.XXXoX X|. X{. X XoXOXoX%X-X-X-X=X*X>X5X$XkX3X|.=XmXUX=XF . o   X   !.UXGXKXKXKXPXSXI.zXq.2.b.gXQ.H.:X=X{.P.UXGX",
"'.|.oX+XOX+X$X$X.X XOXXX|. X|.OX.XXXXX+X%X=X;X;X-X=X,X;XVXPXtXSXKXZX:XV./ o   . .   @XUXGXKXKXKXJXZXZ.@X`.v.).+X8.p.c.`.(.qXUXJX",
"_.{.+X}..XoX$X@X X X@X|..X+X XXX XXX+X$X=X=X*X=X*X:X:X;XVXIXPXUX#XY.6XiXA   . .     ,XUXGXKXKXKXIXUX*X>XUX&X#XqX,XxXaXoXvXUXJXLX",
"XX X.X}..XOX@X|.{. X.X[.|.XX|.XX X|.oXOX&X*X=X=X*X&X;X1XeXbXDXUXT.7XUXOXr   .     . >XUXGXKXKXLX%XXXKXPXpXLX:XvXZXNX@XAXaX@XJXLX",
" X@X.XOXOX/._.].`..X+X.XXXXX X.XXXOXoX#X*X;X&X&X-X=X,X8X9X6X5XAXpXyXUXb.# . .   .   +XUXGXKXKXUXy.'.%.[.[.r.;. XA.T._.u.3.q.sXUX",
" X X.XOX}.K.|.].{. X+XXX.X.X}..XXXoX@X&X$X&X%X-X-X-X<X0XeXeX3X4XIX>XJXE   X     X   Y.UXGXKXHXUX#X-XD.=.i.|.L.q.K.).lXb.x.+XrXCX",
"}. X}.OX|.OXOX}. XOXOX XoX.X|.XX.X+X+X@X%X=X%X*X;X;X,X7XeXqXwXyXVXpXs.3 X       o   w.UXFXKXKXPXG.P.-XaX/.[.OXvX&XK.~.AXT.D.0X8X",
"XX/.`.+XoX X XoXOXoX+XXX XOXXXXXOX+XOX#X%X>X=X;X:X-X<X7XeXwX0XqXqX0Xv.> . .     X   K UXJXKXKXJXLXUXLXKXIXKXKXPXLXIXUXJXKXIXPXLX",
".X`..XOX.X{.{.[.XX.X X[.}. X}..X.X.X XOX%X*X&X&X$X&X:X5X9XtXiXsXtXU.y.2   .     .   ; rXUXHXKXKXJXJXKXJXGXJXJXJXJXJXHXJXHXHXJXJX",
" XOXXX.X|.|.{.'..X X|.[.{.@X}.|.}.|.OX@X$X-X=X$X$X&X,XrX5XT.d.a.-.( D &           o   i.UXFXKXKXKXKXKXKXKXKXKXKXKXKXKXKXKXKXKXKX",
" XoXoX.XXX XOX{.}.@X X|.XXoXoXOXoX+X+X&X=X,X-X<X9X;XXXE.k.l.!.g.n m l .           .   6 uXUXHXKXKXKXKXKXKXKXKXKXKXKXKXKXKXKXKXKX",
"|. X+X@XXXXXoX{.OX+XXX XXXoX.XoX@XOX%X;X;X,X<X(.-.J ] e.C.'.*XF.l v ,               O   6.UXDXKXKXKXKXKXKXKXKXKXKXKXKXKXKXKXKXKX",
"XX}..XoX.XXX+X+X+X@XXX{. XoX.XXXOX#X#X-XXXP.:.h h Z Q ) ` | Z d #.L @ .           . @ g S.,XUXGXJXKXKXKXKXKXKXKXKXKXKXKXKXKXKXKX",
" X.X|.|.XXXX|.XX@XOXXX X XOX|.XX+X#X@X=X&X&X.X*XF.h.#X2X$X'.Y.L.XXC.-   .           $ 2 $ o L.UXHXGXKXKXKXKXKXKXKXKXKXKXKXKXJXGX",
" XXX X+X+XOXXXXX@XoX|. X|.+XoX+XoXOX@X%X=X:X,X>X@X[.W.$X0X0X4XwXUX,.X .             .   . . o t.HXUXJXFXJXKXKXKXKXKXKXKXJXGXLXUX",
"|. X X~._..XXX|.XX[.}.}.}.@XoXoXOXXX+X%X$X-X-X#X'..XG.|.DXIXJXAXU.0 +                     . o   B OXPXUXIXJXGXFXFXFXFXGXKXUXAXx.",
"'.}.OXE.U. XoX|..XoXOXOXXX+XOX#X&X#X*X*X-X,X3X=X|.|.$X=XeXxXMXk.=.d   .                     . o   X G D.dXUXUXUXUXUXUXUXHX(.v   ",
"'. X.X@X$X.X#X@X#X+X#X#X+X@XOX$X*X&X=X1X<X3X4X1X6X3X7XeX6X6X0X>.%.-   .                         X X     : S +.u.k.h.0.o.k     o ",
"|. X XXX+XXX+XOX+X@X#X$X$X%X@X%X*X*X&X,X<X3X4X2X5X5X6X8X0XeXuX`.`   .                               o o                   X X   ",
".X.XXX+X$XXX$X+XXXoX#X%X$X%X%X&X%X&X%X-X:X5X4X1X2X3X5XqX0X9XxXtXA   .                                   . o o o o o O o X       ",
".X XXXXXOXoXOXoX XoXoX@X+X@X#X#X#X#X#X&X&X>X:X:X;X>X3XqX8X5XvXf.9   .                                                           ",
"U.&XOX|.@XOX+XXXOX@XoX+X@X%X+X#X$X@X#X$X%X;X-X=X:X<X5X0X0X4XlXk.-   .                                                           ",
"a.h.T.+X#X+X+XoXoXOX+X@X#X%X+X#X@X+X+X$X=X;X=X=X<X2X6X9X0X9XkX~.$   .                                                           ",
"J.n.-.i.D.oX&X@X.XOX$X$X&X%X#X$X#X#X$X$X%X-X=X<X<X3X4X0XeXeXbX[.O   .                                                           ",
"q.i.f.6.} <.g.K.^.`..XOX@X$X#X#X&X#X&X&X=X=X;X;X2X3X4X9X0X8XFXl.  .                                                             ",
"@.O...N K f 3 8 c Q i.v.U.!.'.OXXXOX#X#X=X,X>X<X5X6X7X0X4XuXLX/   X                                                             ",
" X_.J.6.] 7.A.,.z Y a u U 5.h.C./.%X%XOX X.X+X-X1X4X4X0XdXUX!., . .                                                             ",
" X'.S.).*X&X7X/ l m # & * - 0 f F ] k..X4XfXnXCXDXPXLXUXHXn.a & .                                                               ",
"[.P.E. X[.*X| X 2   .   $ k o X X . : 0 c %.r.c.E.).|.z.n * ;   .                                                               ",
" X~.].|.=Xc.& ~ 3 *   X   D T o . + o o o @ # o o 9 6 % - * .                                                                   ",
"}. X}.OX%Xl @ $._ ) M y 7 8 ! H O . .       . O O ; = + o   .                                                                   ",
".X}..X#XP # , * g #.8.>.d.9.G E Z % .     . .                                                                                   ",
"|.|..X_ $ 1 , , $ y ( U O.>.<.Q F S 9   .                                                                                       ",
"|.W.J , 1 > > > < * 8 q n P I @.~ p h 5   .                                                                                     ",
"H j @ > > > > > > > 1 k h *.n o.@./ E g # .                                                                                     "
};
