/* XPM */
static char *_2243_a5a82964bae742b1b84aebe91cece35a375dab170af9cca459450e8c0c9e0af6[] = {
/* columns rows colors chars-per-pixel */
"64 64 252 2 ",
"   c #040404",
".  c #0B0B0B",
"X  c #080807",
"o  c #11120D",
"O  c #181F0F",
"+  c #131313",
"@  c #1B1B16",
"#  c #1C1C1B",
"$  c #181716",
"%  c #100F0F",
"&  c #221D1B",
"*  c #1B270D",
"=  c #1E320D",
"-  c #1D2C11",
";  c #1B2115",
":  c #1F3411",
">  c #22380F",
",  c #23221B",
"<  c #25271A",
"1  c #223313",
"2  c #243C13",
"3  c #28391A",
"4  c #211F20",
"5  c #242424",
"6  c #2C2B2B",
"7  c #2A2824",
"8  c #332E2D",
"9  c #2B3524",
"0  c #36352A",
"q  c #333332",
"w  c #3B3A3A",
"e  c #3A3735",
"r  c #332D31",
"t  c #1F2120",
"y  c #433C37",
"u  c #41392B",
"i  c #264213",
"p  c #294414",
"a  c #2C4B15",
"s  c #2D4B1B",
"d  c #2A431A",
"f  c #34491C",
"g  c #2F5216",
"h  c #325416",
"j  c #32541A",
"k  c #365B1A",
"l  c #385B1A",
"z  c #28450F",
"x  c #3C641D",
"c  c #3E691E",
"v  c #36472A",
"b  c #385725",
"n  c #364B2D",
"m  c #3D6221",
"M  c #3E6526",
"N  c #416D1E",
"B  c #41651F",
"V  c #435B29",
"C  c #43423C",
"Z  c #494439",
"A  c #54493E",
"S  c #4B5735",
"D  c #436524",
"F  c #436C22",
"G  c #47682A",
"H  c #467322",
"J  c #497524",
"K  c #4B7B25",
"L  c #4C742B",
"P  c #4D7A2A",
"I  c #467628",
"U  c #537D2B",
"Y  c #52772B",
"T  c #4A6835",
"R  c #566A35",
"E  c #4D7532",
"W  c #587A37",
"Q  c #50672F",
"!  c #6B5D3C",
"~  c #3D3C41",
"^  c #433F41",
"/  c #444343",
"(  c #4B4544",
")  c #4C4B4B",
"_  c #4B4946",
"`  c #534E4D",
"'  c #544C44",
"]  c #4D5744",
"[  c #595649",
"{  c #545354",
"}  c #5B5955",
"|  c #5B5856",
" . c #5B4F53",
".. c #665949",
"X. c #645B57",
"o. c #715F56",
"O. c #745C48",
"+. c #566547",
"@. c #587346",
"#. c #5E6258",
"$. c #75644B",
"%. c #696458",
"&. c #776658",
"*. c #687759",
"=. c #6B754D",
"-. c #665F62",
";. c #6A6765",
":. c #766B66",
">. c #797669",
",. c #7A7674",
"<. c #71726C",
"1. c #5F6064",
"2. c #826D5C",
"3. c #83745E",
"4. c #836F64",
"5. c #887566",
"6. c #847977",
"7. c #947C6B",
"8. c #4E8125",
"9. c #4F8329",
"0. c #518427",
"q. c #538529",
"w. c #558A29",
"e. c #598C2C",
"r. c #59862C",
"t. c #5D932D",
"y. c #5E8C32",
"u. c #598437",
"i. c #5F9530",
"p. c #61942F",
"a. c #62992E",
"s. c #658A37",
"d. c #639433",
"f. c #659A32",
"g. c #6B9D35",
"h. c #6D9C3A",
"j. c #6A953B",
"k. c #739C3C",
"l. c #74993B",
"z. c #75853E",
"x. c #6DA235",
"c. c #6DA03A",
"v. c #71A436",
"b. c #73A43B",
"n. c #7AA53D",
"m. c #7BAA3D",
"M. c #74A939",
"N. c #7EB13B",
"B. c #5C8244",
"V. c #678947",
"C. c #6B9544",
"Z. c #779C47",
"A. c #759057",
"S. c #7BA443",
"D. c #7BAA43",
"F. c #7CA54B",
"G. c #78A546",
"H. c #7FA85C",
"J. c #758567",
"K. c #80B33C",
"L. c #859B46",
"P. c #878A5D",
"I. c #82AC44",
"U. c #84AB4C",
"Y. c #84A749",
"T. c #88B248",
"R. c #86AC52",
"E. c #8BAC54",
"W. c #87AA57",
"Q. c #8CB253",
"!. c #8DB25B",
"~. c #87B051",
"^. c #95B45A",
"/. c #94B24E",
"(. c #A4BA4E",
"). c #888479",
"_. c #98887A",
"`. c #8F966E",
"'. c #B19678",
"]. c #97B764",
"[. c #98B078",
"{. c #A2AB6A",
"}. c #A7C04B",
"|. c #C1C95D",
" X c #937F80",
".X c #898886",
"XX c #968B84",
"oX c #979489",
"OX c #9C9D9A",
"+X c #979693",
"@X c #8E928E",
"#X c #A8998C",
"$X c #A49C97",
"%X c #AC9486",
"&X c #9CAD88",
"*X c #A7A49C",
"=X c #B8A69A",
"-X c #AEB190",
";X c #A9A7A5",
":X c #B8ADA4",
">X c #B4B3AD",
",X c #BCB6A8",
"<X c #BCBAB5",
"1X c #BCBCBA",
"2X c #B6B5B2",
"3X c #AFB0AB",
"4X c #A19FA0",
"5X c #CCB290",
"6X c #C6B9A8",
"7X c #C2BDB7",
"8X c #C5AEA8",
"9X c #C19F83",
"0X c #AEC48E",
"qX c #BDC7B2",
"wX c #C8C6A9",
"eX c #C4C3BD",
"rX c #CAC6B8",
"tX c #D5CAB9",
"yX c #D3CBAE",
"uX c #D3CBA5",
"iX c #C4C4C2",
"pX c #CBCBC7",
"aX c #D2CEC5",
"sX c #D3D2CC",
"dX c #DCDACD",
"fX c #D9D3C8",
"gX c #DBDBD4",
"hX c #DDDDDB",
"jX c #D7D5D2",
"kX c #CED0C6",
"lX c #ECDDCB",
"zX c #E7D9C6",
"xX c #E2DED4",
"cX c #E1DFDA",
"vX c #F0DFCB",
"bX c #EFE1CD",
"nX c #EEE4D5",
"mX c #E4E3DC",
"MX c #ECE6DC",
"NX c #EDE9DD",
"BX c #E4E2D6",
"VX c #F2E5D5",
"CX c #F3EADD",
"ZX c #F1E7DA",
"AX c #F1E2CF",
"SX c #E4E4E2",
"DX c #EDEAE3",
"FX c #EDECE9",
"GX c #E9E7E2",
"HX c #F2ECE2",
"JX c #F1EEEA",
"KX c #F3F0EB",
/* pixels */
"x M Q E s.J N 8.8.w.a.i.w.w.t.w.t.t.t.8.w.8.c a.a.w.w.w.K K h k K 8.8.0.x c c h g h g a > i p g i p h j a a a > = : * 2 p b V b ",
"l G T F H K K c c e.x.i.a.t.w.w.w.t.8.8.w.t.t.a.i.8.8.w.K K k h k c K w.x c x h g g a g i p a g p > h j p d : = = = * : d V b n ",
"V T D B x K w.N h w.w.w.t.8.8.w.0.w.8.8.8.t.t.a.i.8.9.i.e.H M x h x c 8.K c g z a z i g a a i z p i a a i i : * = : 1 q n G s d ",
"V L L P 0.J H J K 0.H w.8.8.8.t.w.8.8.8.8.a.w.t.a.i.i.a.t.K H I K H c c K c z z p = = p z i i > 2 i i d i : 1 - = 1 n v n j a d ",
"G m J r.g.H z N 8.8.8.t.w.w.w.t.t.8.8.8.0.0.0.t.t.i.w.8.w.c K 9.8.H c c K x a 2 2 : : > i : i p i a s i 2 1 - - 5 n n 9 2 a p d ",
"x h N 0.p.r.c H 8.h c a.a.a.i.a.i.w.t.t.8.c K 9.w.9.c K K 8.9.9.K H H K J H h i : - - 1 > 1 2 k h h j g s 2 3 v n n d 3 3 p i > ",
"K 0.r.0.K 8.H N x g H 0.0.t.i.x.x.t.e.w.c c H e.t.B.u.C.e.9.9.i.C.H.B.@.L P x a 2 - = 2 : - 1 s h k h k m b b T n v i s s i 2 2 ",
"t.p.q.8.N N h k c x c c H 8.t.a.i.w.9.K c H 9.G.&XqXiXkXqX[.&XrXsXgXhXqX`.W L T S S V v 3 1 1 1 p g g b b @.@.n n s i s s i i 3 ",
"t.t.q.x a x l B 8.8.x h F 0.t.0.e.t.0.8.K e.[.eXmXDXNXNXNXnXVXVXNXNXNXDXhX$X&.#X6XwX6X-XoX>.S 3 : i g j M T T b n b s i s i s s ",
"e.H H k a x J H w.w.H x K K 8.K w.t.w.t.r.&XgXFXDXNXCXVXAXAXVXVXZXNXDXHXDXjX X1.*XzXlXVXlXzXyX#X*.s j j M M M M b b b j k d s s ",
"0.N B x a N K 0.t.0.H K K x x x c J w.f.&XmXDXHXHXNXCXVXAXbXAXVXnXZXCXCXHXDXpX<.X.$XnXMXnXnXZXvXfX*XJ.M b M M b b j b s b b b s ",
"J J J N x l K 0.8.8.w.H H x x a h c 9.[.mXJXJXHXHXCXVXAXbXbXAXVXZXZXZXCXHXHXGX3X .X.;XHXDXHXMXMXZXMXhX&XT j M M b b b s M I M b ",
"N F P q.K J r.d.e.K U P K P H b l J A.dXKXHXHXHXHXNXVXAXAXVXAXVXZXVXVXCXCXHXDXjX,. .-.2XKXJXHXCXMXNXCXnX3XE M M M M M M I u.9.M ",
"B K P 0.r.s.p.I.h.d.e.e.y.f.s.L f f >.fXHXCXKXHXHXCXCXZXVXVXCXVXVXVXzXtXtXbXNXmXXX`  .:.sXKXJXDXDXHXMXMXSX0XB.w.I I u.9.I M I B.",
"K e.f.g.p.d.t.}./.x.g.g.b.n.j.V @ . o C rXHXHXHXHXHXCXCXCXVXCXCXnX#X' Z A %.wXBX4X` ^ ^  XGXJXJXJXJXHXMXFXGX&XB.B.9.I I I I I E ",
"g.v.v.v.p.g.g./.|.N.g.g.h.b.Y $ X X X   _ xXHXCXCXCXCXCXCXCXCXCX#X,       o C ;X;X .^ ~ ( 2XJXJXJXJXJXHXFXFXgXH.B.9.9.B.B.9.I B.",
"M.m.v.g.v.v.g.n.|.(.M.v.b.k.v X       X & ,XCXCXCXCXHXHXHXCXVXVXX.          . ` .X{ ~ ~ w <.mXFXJXJXJXJXMXMXDXeXZ.g.y.C.H.G.i.j.",
"E.S.I.m.b.D.k.j.l.(./.v.S.C.;         X X 5.CXCXHXHXHXCXHXHXVXzXe             , ` ) ` ) y _ 1XFXFXJXJXJXJXcXGXxX&XG.G.G.H.C.G.C.",
"U.D.m.T.D.D.m.n.b.T.(.k.F.=.o X         ; =XCXCXCXNXHXCXCXCXHXzX8             + r r ` ) ~ w .XGXFXJXJXJXJXDXcXmXwXF.x.c.G.c.x.C.",
"D.m.I.T.U.R.I.N.I.K.(.s.U G o X       $ +XNXNXCXCXNXHXHXHXHXCXCXXX&           o 5 # w ) w 6 X.aXSXDXGXGXDXGXxXxXdXH.w.i.j.i.c.c.",
"I.I.U.I.D.D.D.m.n.n.L.Y.s.s.1 X   X $ ).nXNXDXDXDXDXDXDXDXHXNXNXxX@X5 . . + $ e 6 . 5 ~ w r ^ ;XcXSXGXDXGXGXgXzXBX[.i.f.h.f.C.G.",
"D.D.U.Y.D.v.x.n.n.l.C.L.k.l.W 8 7 8 ,.gXDXDXDXNXDXNXNXNXNXDXHXDXMXxX$X| / e XX:Xy . % 5 w w w ,.hXcXmXDXGXSXjXfXdX[.x.x.c.c.G.D.",
"U.D.m.S.D.m.v.v.g.e.q.e.g.n.W ( :..XsXNXNXGXNXMXMXBXBXMXBXMXNXMXBXMXhX>X,.%.6XaX` X . # w _ / X.pXgXhXSXGXmXsXrXfX0XF.G.c.D.G.D.",
"R.U.m.v.n.g.v.v.g.y.d.g.k.k.C ` +XaXNXmXSXmXmXxXxXBXxXxXdXdXcXMXmXxXmXhX>XXXeXfX_ . . $ q ~ ~ ` 2XgXgXhXSXmXjX7XtXwXH.F.D.D.F.G.",
"G.S.m.n.G.h.g.v.b.g.g.f.h.W 0 ,.eXMXmXjXhXhXjXpXjXhXjXgXpXsXjXjXdXdXgXmXdX;X7XaX~ X % $ 6 w w / +XkXjXsXsXgXjX7XrXtX].D.b.b.G.G.",
"D.b.v.M.b.G.h.S.n.n.n.n.Z.Q q OXgXmXjXpXiX1X1XiXiXjXsXaXpXiX1X<XeXeXkXgXcXeX2X<Xr . % + t q w ~ ,.2XpXeXiXsXjX>XrXkX0XF.c.x.c.c.",
"D.m.M.b.b.D.M.c.v.g.b.F.F.G ) 2XcXhXeX>X4X4X@X4X2X1X1X1XiX2X.X@X*X3X<XtXmXxXeXOXt . % # t r q w %.4X2X3X2XpXjX;XqXrXwX!.c.b.M.M.",
"M.g.x.M.M.m.M.b.x.b.v.D.j.b <.pXhXpX>X*X@X<.~ { +X1X1X1XiX,.6 ~ ,.+X;X<XfXmXaXoX# . . + t 5 q q } @X;X;X;XeXpX;X*XwXwX!.v.x.x.x.",
"h.d.g.x.N.m.m.v.f.c.g.g.g.b .XjXjX<X4X@X.X~ . . ;.iXhXjXiX1.. . 6 .XOX3XeXxXcX$Xt . + + $ t 6 q ` .XOXOXOXqXiXOX$X=X,X!.M.M.x.a.",
"b.c.f.g.M.m.n.b.g.f.p.d.d.V .XgXiX;XOX@X1.# . % ;.iXjXhXSX4X5 % % ~ .XOX>XfXhX;X# X . % + + 6 ~ ) @XOXOX4X1XiX.X,.).*X].x.x.i.i.",
"d.i.i.f.f.f.d.e.t.g.d.t.y.V .XkX;X@X@X<.t % . ) pXSXhXSXFXFX+Xt + # | +X$X,XfXOX# . . . . + 6 r ~ .X4X4X;X2X1X<. .:.&XR.a.w.w.i.",
"e.e.d.e.0.u.s.0.t.d.d.i.r.V ,.<X).6. X/ . . + OXhXSXSXFXSXSXjX{ . % ) @XoX3XiXOXt . . X X + 5 q ~ J.;X3X;X2X1X;.q ) ).R.a.w.w.0.",
"q.y.p.p.0.r.j.s.y.p.t.d.r.l ;.+X,.<.,.) %   6 ;XpXpXjXhXhXSXhX.X+ # ;..XXX*X<X@X# X X X . + t 5 ~ <.;X2X2X1XiX.Xq w :.!.h.i.0.K ",
"K r.q.K r.e.d.p.p.r.i.d.e.x } @X>.;.;.%.r # ~ 2XpXSXFXSXFXSXSXiX;.%.5.P.6.*X>X,.+ X X X . + t 5 6 1.4X3X3XqX<X4X_ 6 X.W.b.y.q.0.",
"w.Y F J p.p.f.g.v.v.n.g.y.x ] 6.:.%.&.%.} } @XsXhXpXiXiXpXhXSXSX<X).3.3.5.+X;X;.%     X . + # 5 6 } @X;X;X-X>X+X) 5 C =.d.K H 0.",
"q.K N J K K d.g.f.f.p.t.r.L 8 %.&.o.%.....;.;XiX@X) / / / 1.1XhX<X5.$.$.3.XX@X~ X X     X . + 6 q  .).+X#XoX*XOX} t q [ R d h P ",
"H J J N B Y 0.p.d.N J d.d.G @ w %.%.......%.).OX1.% . . . q +X1X#X3.$.$.>.J.{ $     X   X X + 6 6 [ )._.oX`.@X.X^ $ 8 ^ ..D N Y ",
"q.r.J B N r.U Y D a 2 D p.U * $ w [ ! A ! O.[ <.1.~ t $ q } .X.X:.O...$.&.| $     X X . . + $ 5 w [ 5.`.).J.,.1.7 $ 7 y [ W p.y.",
"w.f.s.D B y.U a l Q 2 p 0.U ; % # < 0 Z Z A [ ' ) / 6 5 e ` ..........[ / 6 X       X . + $ t 6 e [ >.>.,.<.;.) $ $ 7 y A R r.U ",
"K U Y P l K B 2 a l l V r.J O X X X . + , 0 u e 0 C y / A ' ( A Z v q 6 $ X       X   X % + t q e [ &.>.;.} n 5 . + 7 u y R r.p.",
"s.W F Y U U G B J Q W r.r.L O   X         . . o + < y C y u u 3 & o o X                 . + + 7 v ..%.%.1./ # % . % 5 r u A W v.",
"g.l.s.L L U R s.k.I.h.j.j.r.* X                     . . % < u 0 , X                     . % + t e [ [ _ ~ t X . . % 4 6 r u R p.",
"e.U r.r.y.j.Z.l.k.I.Y.Z.Z.s.3 X                           , u 0 < o                 . . . % + # q Z 8 # + .   X X % & 5 7 0 R f.",
"s.s.j.l.j.!.E.n.S.W.!.R.G.G.R o                           . , < & o                     . % + # v 3 o     X     . % & 7 7 7 Q y.",
"Z.E.S.m.U.~.!.!.U.E.U.R.Q./.W O                               . . X                 X . . . + ; G D O           X % + t 7 < Q r.",
"^.U.F.T.!.~.~.Q.R.Y.F.F./.].L.<                                                         . . . < W s.V o         X . % + & 0 G W ",
"Y.m.R.!.!.^.W.H.Y.Y.Z.Y.Y.].E.3                                                 . .   . . % % 7 =.V.Y v X X     X X % + $ 0 E B.",
"Y.I.R.!.].].F.G.Y.Z.Z.W.E.U.Y.V                                                     X . . . . 9 W u.u.E ;       X X % % $ n B.V.",
"Q.Q.!.Q.].!.R.R.E.T./.^.^.Y.I.W .                                   X             X X . % . . 9 @.u.u.W d X     X . % + # ] V.V.",
"E.E.Q.E.W.U.U.Q.Q.~.T.T./.U.m.z.o                     .     . X     X           X   X X . % % v W @.E u.G X     X % # 5 r n @.J.",
"Z.F.G.R.Y.U.E.E.Y.E.E.L.L.Z.n.l.*                     .   . . .     X             X X . . . + q ] +.T *.+.%   X   . 5 r r 6 q *.",
"R.R.Y.Q.E.I.T.U.I.E.L.n.k.n.n.Y.f                                   .           X X X . . . % q +.J.J.J.*.+     X # r 5 $ $ # ] ",
"G.R.L.S.l.k.n.m.Z.G.L.k.Y.!.[.[.Z X                                 .         X X . . X . . + / <.J.@X`.J.+   . t t # % + + 5 ] ",
"l.L.l.Y.Y.E.k.n.Y.Z.{.,X'.).oX#Xe                                               X X . . . % + 6 ] +.#.<.] . + t t + X % $ t ] *.",
"Y.L.L.Y./.^.^./.^.{.XXXX:.X.X.} &                           . .               X X X . . . % % t 5 5 5 5 $ t 6 t $ X . + # 5 / *.",
"6X5XuXuX5XuXuX5X5X'.:.X...y Z u @                       . . . . % % .         X X . . . + % % # + % . X + t t . X X . . # S *.<.",
"8X:X=X;X8X8X8X8X6X). .y y y u u &                   . w w q q r 6 6 $           X X . % . % $ $ X X   X . $ . X % % $ 7 +.+.*..X",
",.:.:. X6. X8X8X8X%.y y y ' A y r 4 & $ $ + %         t q 6 6 6 6 6 .             . + + % + $ + . X X     . $ + 9 n R =.>.n Z ] ",
";.;.:.-.:. X=X XXX..y O.2.4.4.5.:.&.o.X.X. .( u # %   + t 5 t 6 6 + . X X X   . % % + + + + # $ % % $ o X + ; 3 #.=.R =.*.] ] *.",
",.-.-. X X X X X_.o.7.9X7.5.4.4.4.2.&.o.....o. .` w t # 5 5 6 5 % X X . . % % % % % + + # + t 6 # + # q q < Z ..5.`.3.3.T A.J.A.",
";.1.;. X4. X4. X7.9X9X9X7.2.7.2.2.2.o.o.O.O.O.X.| | | { ` { _ r . . . X X + C e ( X.>.).oXoXoX:XOXXX_.>.[ S 5.'.'.-X5X{.z.Z.*.T ",
";. X-. . .o. .-.9X9X9X'.7.7.4.2.4.4.&.4.O.! ! ` { | -.1.X.%.| q %       % _ _.=XtXlXlXlXlXVXVXAXVXnXnXnXzXyXrX6X`.P.`.`.A.`.A.+.",
":.-. .^ ^ ' y 7.5X'.'.'.7.2.2.2.4.6.4.4.O...A / ` ( ' ( A A } ` r $ + # / <.6._._.%X6XzXlXzXbXzXzXvXbXbXVXVXVXvXzXuX'.@.=.P.=.@.",
"^ ^ ^ ^ y ^ y 9X5X5X9X9X2.2.2.2.5.6.4.4...O.( / / ' ' ' A ' A ` } ` ) { 1.` } %.X.&.5._.6XzXlXvXzXzXbXlXvXvXvXvXvXvXzX`.=.P.`.@."
};
