/* XPM */
static char *_937d63e2cf0426bde5db871b303e3c6plJKWJpub4M7smQt[] = {
/* columns rows colors chars-per-pixel */
"64 64 216 2 ",
"   c #140F07",
".  c #1C1A09",
"X  c #221D0C",
"o  c #1D200B",
"O  c #24240B",
"+  c #2D2D0D",
"@  c #242607",
"#  c #312D0C",
"$  c #2D330C",
"%  c #32340E",
"&  c #353B0C",
"*  c #3B3C0D",
"=  c #2A2712",
"-  c #342E14",
";  c #362E19",
":  c #392E1C",
">  c #353412",
",  c #3A3313",
"<  c #363A13",
"1  c #3B3D13",
"2  c #37351A",
"3  c #3C3619",
"4  c #3E3B1C",
"5  c #433E0E",
"6  c #423E14",
"7  c #433D1B",
"8  c #453B1B",
"9  c #453C21",
"0  c #403320",
"q  c #543F2B",
"w  c #3D4B07",
"e  c #3C440D",
"r  c #3E4A0C",
"t  c #3B4407",
"y  c #3D4312",
"u  c #3F4B11",
"i  c #42450E",
"p  c #434C0D",
"a  c #494E0C",
"s  c #434F07",
"d  c #475607",
"f  c #46520C",
"g  c #4B540D",
"h  c #4D5A0D",
"j  c #51560E",
"k  c #525C0E",
"l  c #585F0F",
"z  c #434513",
"x  c #494517",
"c  c #444B13",
"v  c #4A4D14",
"b  c #44441B",
"n  c #4A451A",
"m  c #454A1A",
"M  c #4C4C1A",
"N  c #514F17",
"B  c #514D1C",
"V  c #574A1F",
"C  c #455212",
"Z  c #4C5313",
"A  c #4E5A13",
"S  c #4D521B",
"D  c #4D591A",
"F  c #525514",
"G  c #585717",
"H  c #535C13",
"J  c #595E15",
"K  c #53541B",
"L  c #59551D",
"P  c #555B1B",
"I  c #5B5D1C",
"U  c #615E1D",
"Y  c #4E610A",
"T  c #54620D",
"R  c #5A650E",
"E  c #556A0C",
"W  c #5B6A0D",
"Q  c #5E720D",
"!  c #4E6013",
"~  c #556213",
"^  c #5B6414",
"/  c #566A11",
"(  c #5D6B14",
")  c #56621A",
"_  c #5C631B",
"`  c #5E6A1A",
"'  c #5F7113",
"]  c #5F7018",
"[  c #616C0E",
"{  c #61650F",
"}  c #63730E",
"|  c #667A0F",
" . c #616615",
".. c #636C14",
"X. c #686D15",
"o. c #62651C",
"O. c #6A671C",
"+. c #646B1C",
"@. c #696D1C",
"#. c #706F1F",
"$. c #647214",
"%. c #697415",
"&. c #667913",
"*. c #6C7B14",
"=. c #65721B",
"-. c #6B741C",
";. c #677B19",
":. c #6C7A1C",
">. c #707717",
",. c #707D16",
"<. c #71751D",
"1. c #727B1C",
"2. c #474123",
"3. c #4D4423",
"4. c #4D4A24",
"5. c #4F4529",
"6. c #544D24",
"7. c #584B25",
"8. c #554B2B",
"9. c #5D4B2A",
"0. c #524327",
"q. c #4C5123",
"w. c #555523",
"e. c #5B5523",
"r. c #555A21",
"t. c #5C5C23",
"y. c #55542B",
"u. c #5C552A",
"i. c #5C5B2A",
"p. c #575A29",
"a. c #4D4133",
"s. c #5A4F3C",
"d. c #5D5830",
"f. c #625D24",
"g. c #62572D",
"h. c #625D2B",
"j. c #655727",
"k. c #655A36",
"l. c #5D6322",
"z. c #5F682F",
"x. c #5E6525",
"c. c #636423",
"v. c #696524",
"b. c #656B22",
"n. c #6B6D24",
"m. c #65642A",
"M. c #6B652C",
"N. c #666C2A",
"B. c #6B6B2B",
"V. c #716E25",
"C. c #716D2D",
"Z. c #71652E",
"A. c #657221",
"S. c #6C7323",
"D. c #6D7A22",
"F. c #6D722A",
"G. c #727424",
"H. c #737B24",
"J. c #7A7D25",
"K. c #73742C",
"L. c #79762F",
"P. c #757B2B",
"I. c #7A7C2C",
"U. c #787626",
"Y. c #666332",
"T. c #6B6433",
"R. c #6C6C32",
"E. c #6A633A",
"W. c #716534",
"Q. c #726E32",
"!. c #746C39",
"~. c #786F38",
"^. c #7A6D34",
"/. c #6E7132",
"(. c #6E7830",
"). c #757432",
"_. c #7A7634",
"`. c #757931",
"'. c #7A7C34",
"]. c #75733B",
"[. c #7A723A",
"{. c #767A39",
"}. c #7B7D3C",
"|. c #736C46",
" X c #7A7242",
".X c #757841",
"XX c #807F2F",
"oX c #827C3D",
"OX c #817E36",
"+X c #827A43",
"@X c #80784F",
"#X c #6C800F",
"$X c #6F8319",
"%X c #6F8016",
"&X c #74821C",
"*X c #7A881B",
"=X c #798618",
"-X c #6C8021",
";X c #758223",
":X c #7B8424",
">X c #7D8B25",
",X c #76812C",
"<X c #7B822B",
"1X c #7E882E",
"2X c #7C8333",
"3X c #81842C",
"4X c #828B2B",
"5X c #85902C",
"6X c #828334",
"7X c #868D32",
"8X c #85833C",
"9X c #8C8D3F",
"0X c #928A3E",
"qX c #889435",
"wX c #848248",
"eX c #8C9046",
/* pixels */
"$.-X;./ 1XA./ ' ' ;.;.| W / A.r.S H ` Z / r C A Y E A h E +.c.A.>XqX3Xw.r.&X;X=.<X) d % M +./ S./ / S.) P ] ;.A ' ;.( :.( *.&.E ",
"D.D.-X' E Q Q ' Q ' x.-.-.' &.:.b.H.f.Z R r r / E ' =./ Y ] P.F.P.,X6Xn H &X;X;XeX_ ( y 1 A 1 u ! E / A ~ / Q Q W ' ;.' / | W E ",
"y l.A.' E ( $.( ' Q E A.D.&.| #X` ;X_ P W r w E E ] ` ] W ( ;X:.-.6X~.M A.:.D.&X..=.,.p t $.S < & ) ~ w ! ! Q T Y ( ' Y f W W Q ",
"p.4.q.l.:.:.' / ' &.] P.D.` &.' ' *...C T w T W / ` ] / ' ( D.@.=.6Xh.x.`.H.A.=...:.1.` p ! ) ~ h $ r / } E E E / ( &.( / T ~ W ",
"-X-Xb.M ;.%X;.( Q *.=.,X-.:.S.' Q ;._ ` A e A :.) ~ ( =.$.' _ {.).[.e.G.N.F.=.+.D.;Xb.e D c y 1 u o e E E E f f ..=.$.1.&./ A W ",
"$X&.*XA.4.D.;X+.^ +.:.$XF.;.;.' ' ! H $.E e C ( T h T / =.;.$.`.P.T.w.B.Q.X.A.P.^ K b P =.$.$.=.` < + Y / Y A Z ~ H.D.;XD.:.$.&.",
"#X$X:.*Xw.q.D.$.$.).c.:.F.@.$.;.` f } =.A w s ( :.( =.` / ` :.b.<.i.i.T.].G.$.+.Q.m.g W W ( $.1...h o p ` H f y f Z ) b.S.] ..` ",
"$X$X-X:X1Xw.` $.-.1XN.F.D.=.&X:.A A } &.H A w C $.$.+.=.r.+.m.N.'.v.v.o.P.<XR _ J.*X$.Y W E $.XXo.} * + F J A z = . 1 ) ) Z ~ $.",
"*.&X:XD.;X@.F ` -.H.D.K.D.` -.( r ~ D.` ( Z H f c =.b.h.p.b.I $.1.>X-.$.*...H r h ' ( h h 1.1.H.%...R & S ~ I +.o., = > y c C r ",
">X;X:.=.$.&X) Z %.:.F.S.-.H ` S.h ^ =.=._ ^ l.~ f r ~ u _ D.:.[ W :.` +.$.X.S e E T W h H J.qX8XG.Z ..I e y l.^ ;.1.B.n c S t.m ",
">X;X=.' Y | -.k ` +.H.c.:.C ' 1./ A <X;.-.@._ b.( w P H C A P H J P l.%.%. .b J $.Q Q ^ o.1X5X4X*Xn.K L S @.$.&X=.,.&XR _ _ B.M ",
"1X`.,XH.( R &.-.^ ;.-.S.P h =.=.` ) c./ 1.+.=.;.` Y P ` b.o.M.Y.B.U.b.S.&.v Z :.[ } R / H I.7X-.J.V.n ^ ` ( %.-.1.&.%.H m +.@.B ",
"P.n.H.<X+.$.$.$.1.b.B.A.=.` ` ( -.=.( ( ` +.-.A.` ( A x.P.K.].~.I.H.:.,.1.m ( [ W W R ..@.m.P.@.K.O.Z +.W $.H.B.c.@.@.o.$.b.S._ ",
"B.N.2XH.=.=.A._ D.K.b.*.;.) ` ! ;.$.( $.:...` ` +.H y ) -.+.S.D.-.*...&.^ * ( [ $.$.-...+.b.<.:Xn.v F $.` _ S.l.` =.&X&.-.S.x.` ",
"N.`.E.F.` +.S.+.=.:.c.` :.=./ A ] =.` / H.b._ I n.+.P S K Z %.<.-.%.,.1.G 5 ( (  .G.n.-...-.I.o.K c +.:.G.e.-. .` J +.-.( $.` p ",
"N./.B./.t.N.c.+.H.G.c.` ` ( ~ ) _ =.^ ~ @.4._ m.M.F.P.-.J P S.o.+.X.G.1.v b %.-.X.@.1.@.<.H.@.I c._ =.-.1.c.o.^ / ) ( .. .c.Z y ",
";X=.:.P.G.b.r.b.n.B.R.v._ x.x.) x.) ] ] N.i.`.P.b.).v.-.<.U  .n.l.G.L.[.K > F.-.O.-.J.X.>.J.o.` -.` W } <.@.^ R H @...O.-.b.e r.",
"-.$.( 1.A.=.) o._ K.F.) ] ` ) ` l.l.) l.D /.2X4XF.I.:.1.1...o._.M.-.-.T.c.& m 1...:.G.G.J.Q.H ..X.H R } @.J Z g A W *.1.1.^ c m.",
"=.=.+.D.@.;...~ +.;./ ( D.A.D A.l.D u y m B._ %.G.@...} ..( %.U.).U G.J x * % S ~ ..-.n.B.L ^ ( ^ W T { @.H g k / ~ [ *.:.d c D.",
"F.D.` +.` $.` / =.D.` T =.A.) x.D e y u x.b.=.v.O.<.%.%.*.( ....J.f.f.S Z J Z - n J ..S.j.L ^ $.^ ( k k ( ) c T g Z h W %.( S c.",
"F.n.I ^ +.b.A ` ` ;.=.` b._ q.N.z.q.y b z.) %.-.X.,.X.X.^ O.M.f.m.t.T.z A / ^ t.7 - K w.m.I o.^ X.J g j Z i Z T A Z Z J ..%.g , ",
"D._ P ~ X._ ) T ( ' A.A.r./.N.(.2X{.S b b.( @.-.@.X.[ 1.o.J.3XG.<.L.).M > z ` P.B.L x % t.1 > z v i I %.G a H A a A -.e.G U x 1 ",
"+.) ^ ~ &.=X` / =.` x.F.-X,XD.A.(.:.Z < ^ T ..-.n.V.@.-.I +.<...1.m.c.<.G z 1 B p.v.c.L u.x 5 8 b Z H o.Z.k h t c h k G V N x , ",
"-._ ( *.>.;X;X=.*.$.] :.;.] H.-.$.( Z > h k $.O.o.`.XXK.L v G.J.n.o.b.o.r.b._.].M._.[.C.n.f.e.L ) P O.H K g p + c A H N n g i + ",
"..^ ` S.P.-.,.%.^ ) _ ] ^ c.:.S.%.*. .2 F ( ` %.S.@.-.J.o.F o.c.L +.-.e.K A.`.eXH.6XOX8X8Xb.'.M.r.v J k d j z + e ~ n.B . + + @ ",
"_ ` +.@.@.%.&XX.` ) ~ A.S.+...D.A.%. .- 5.o.=.+.b.c.@.H.^ W U.B ^ n.F _ K.}.@.n.'.o.n.<.1.o.I.W.V J J a j ..c.5 5 H L # * 6 X   ",
"=./ $.( k =.J.%.A E ` =.P.X._ ..n.J n.3 3 P z S m.m.B.@.I _ t.M G.m.K P.K.m.{.n.o.f.O.V.X.%.<.Z.6 Z .. .g I B v I 8 i i Z F * @ ",
"/ ] -.+.( :.H.4X) f ~ -.o.o.^ ..o.J.Q.b I +.F h.Y.e.e.l.v.c.n M.M.@.h.wX{.R.K.P.n.@.....@.@...X.B J { { F F a J N 5 H J J Z h * ",
"z Z ~ _ ( ( } ..H ~ ( *.J.B.J +.K._.6.J X...+.B.6.t.v.e.G.o.z Z e.F.o.l.{.F.S.n.n.U o.{ [ K I K I X._ J H R +.m.* e ^ F ^ g H 5 ",
"r.P y S _ ~ W ~ ` T ( ..b.S.b.B.oXY.7 +.S.@.I P 7.W.e.i.M.M.n Z m.).b.^ F.B.I  .X.X.@.X.<.^.j.G x c.G s a J n.v.B , z c Z F G e.",
"A ^ ~ c 4.S P ~ k k ..:.J ..R. XoXu.> 2.b K n 9 8. X X!.m.e.r.6.P _ F.H Z ^ H ^ <.J @.U.^.C.c.f.Z L I v G 6.6.j.f.f.3.6 a J I I ",
"P ) k c w.8.2.b c A ~ =.-.-.c.r.M.g.T.g.x.8.p.Y.).K.I.8XoXm.c.p.) _ P.R h F _ o._ F o.^.j.V v.I X...F O.U m.Q.m.@.n.Q.j.x n U i ",
"` S.w.K ) b.H S 5.4 m S S S b ; 0 i.P.G.o.).R.F.J.J.J.n.P.c.r.d.).S.....[ ^  .c.L l @.M.M.L 7.F J J .. .P o.P.G.o.C.^.K.N n N 8 ",
"^ n.w._ ^ ( ( H K Z z 4 3 2 5.u.Y.v.1._ v :.b.@.1.J.oXM.m.{.m.> k.-.^ ^  .J @.f. ...f.j.f.M.j.F F a k v J ^ #.V.J c.M.C.U F v 8 ",
"^ c.Z k f ` ^ J -.+.F 4.d.Y.{.M.v._ l.m _ _ / ^ O.I.eX7X=.D.{.8.5.l.%.X. .^ @.o.O.#.L q V U o.O.U I N a o... .^ U Z J c.G l v t.",
"~ ` ` ~ g h _ _ o.f.w.r.N.c.D.n.n.n.c b D.c.@...X.L.6X(.R.S.B.P c b P @.o...o.U O.O.v.8 V 9.9.V J l F i g J v.m.J p F n.F N B o.",
"^ A ~ / T ~ ` b.i.9 y.Q.m.c.@.c.H.G.7 r.b.J J J *.9X'.Y.|.2XP I B 8 3 z x L M U d.0 q E.g.g.k.3.# L Z s v f.U I k s t i R j a k ",
"A H A H ^ ` P r.b 7 F.T.R.P.m.@.-._ 6 ) J F H ..%.eX].F F.K.m.).'.w.: = ; 5.0.s.q k.E._.OX_.XXG.8 9 N s Z 6.^ J o.Z d e % g Z g ",
"P ` ( a Z l.b.< b N.R.m.R.).M.-.:.F 1 H J g J ( J.<X].p.` I b.-.1.K.e.w.M.W.@X|.k.L.n.$.@.S.S.U.oX3.3 z p s d R @.o.a p > O c i ",
"k J l.Z Z M 3.2.x.b.E.M.m.).-.+.@.z y _ ^ _ f.@.'.P.n.b P X.X.A.I o...@.S.n.n.V.@.@.^ ^ ) { o.v.oXW.- z Z f h T  .n.Z Z H * X e ",
"/ a Z ) S 7 2.l.l.F.v.M.F.L.c.).j.> Z ^ J ^ o.@X].B.K.J ..X._ @.o.I A ^ @.-.( o._ ^ o.I j J c.I _.+X, & 5 & g g H K & c a ^ + z ",
"S.y C S b 4 p.+._ =.&XP.R.R.i.C.l.< ` / o.I f.+XoXQ.@.H ( @.P F @.h.z ^ o.J F R R J _ ^ ^ _ L o.O.L.7.z p p 4.G _ z % v a g c y ",
"_ f y D _ 1 P ` J k ^ l.g.M.@.K.4.+ H ^ ^ ) O.O.V.'.:.^ J @.@.^ +.J g ^ ^ l F ^ T k k H ^ ~ { ) [ @.N  .J J J ..J ^ j e g f ` * ",
"S b S ` Z 1 A ( Z k P @.o.B.v.t.n < P H ^ P ^ _ o.G.$.k R H  .^ ~ k F k T ^ ^ H g I N J ^ ..{ X.o.1 5 @.j k j R j g T k k p C Z ",
"b u / H e > k p p k ~ $.c.m.P $.I 1 c ` ^ J b.:.@.@.o.P F N F H k ` k H H ~ / _ J P J [ ^  ...+.x n x J k Z j j h h R ^ k h d j ",
"& H ~ h S ; Z s c / ` -.@.o.b.+.S * r P P ) ) @.I +.r.v.I ..^ ^ H ^ k ~ H J ^ ^ o.J J } X.H.v.L j.F H R k a T F a g J H g k d Z ",
"& r d g c 1 4.S Z ~ $.o.b.F.r.B S c y ) ) ` @.h.t.-.=.@.-.O.......J ^ ^ ~ Z Z v g h k  .B.Z.8 L v.J R k k Z T W g Z H F g d p p ",
"r f H Z ` C S 2 n d h ^ b.m.w.e.Z t.S S H A.n.x.I H T P X.^ J H k R g J ^ Z p Z h g W X.oX_.G +.F G l ( ^ v g ( c Z Z e Z a a s ",
"u h A ( ..g s c v h D x.M.K u.P P I S _ c T =.K v g .._ k W J J ^ ..J j R H r e k h ~ @.n.3XK._ J v H g H g g I p J j p e f g k ",
") ! f T ..R H , c ~ _ @.t.B.b.Z K I z M ~ P _ 6.J J H H +.J ~ ^ ^ o.o.) Z f a * a ( ~ ` -.n.I %.o.H Z g e p H o.v h H a e g f e ",
"P g k k ( ( f & m +.~ +.t.N.P $.;.N.P m K P @.I F _ ^ ^ J _ F ^ ^ I t.+.k v ~ _ M F _ ^ -.n.n H.@.Z W g f k k T Z a a F r c Z e ",
") ` ^ e.K ` Z C y S c.m.l.` P H _ m.m.H Z P ) .._ o.o.c.x ~ k  . .Z P ^ W +.J H ` P c P I J S +.B v _ ( ..~ h g a l I G c p & i ",
"_ ) n.).f.M M ~ u Z A.x.^ ^ Z c x.P e.P F r.P H F c.o.m.Z H ^ o.^ ( H c J v J 5 M Z z n Z _ l.m A _ F ^ k u i g g j U V.s f z P ",
"F.c.C.`.l.P F r r Z ..Z ` _ r.f _ ` F.t.) I Z ) _ F ) P o.^ @.o.H Z B.B r.c.I c.o.J ( -.l.r.v.S g h Z g H Z r Z p l I o.g 1 p p ",
"o._ L.K.J r._ P Z c S Z ^ v.h.P ^ S m.f.F I A H Z P K M J ^ J _ x z x 4 @._ o.n.%...=.` ..@.h.I Z e g c Z H h ~ Z j p z e e Z v ",
"c.n.<XK.n.x._ F A f J ~ J Y.k.i.J P t.S.m.F A ^ ^ o.M.6.6.I K M G t.q.S F @.v.H o.+.+.o.O.@.@.I H p p 1 g g g h k O.V e y A z e ",
"m.b.H.L.N.w.G i Z d ^ c =.m.S.Y.I / P b.F.M v o.F H V.m.o.n.f.P c.A.n.^  .J ..k J ^ o. .@.o.o.n.c P a & r Z x F o.F H $ c H C H ",
"^ %.I.`.t.A ^ H y P l.Z ^ c._ ..o.o.F P ) l.Z Z Z F _ =.) @.-.v.A.@.<.k  .O./ { k ^ k ..J k <.m.H V.+.c 6 x ^ j k @.M $ f H f H ",
"S.D.K.N.l./ / ^ A Z P h c A H R @.r.Z A A F.x._ J H F ^ o.%.H ^ :.X.<.I F ^  .J J o.^ l k T I f.P I w.y.M Z g R j k c & f Z r y ",
").P.c.v ) ^ +./ H A c Z Z Z H :.~ H ) _ _ =.S.S.<.L x Z #.X.Z T {  .@.^ J k .. ...^  ._ [ ^ I v x.h.T.].v.v k l j a & d w p a C ",
"'.{.e.M P l.) ( ~ Z o.H F g k ..H c _ +.$.T ^ X.+. .B * ^ H Z o. ...H ^ f T +.T ^ k J ^ %.) L t.S.J.K.H.1.S.k  .P Z & p e e e c ",
"/.p.t.o.w.t.b.+.C p ~ / m.) Z ( H c x...^ k h  ...X.I < ^ ^ h ^ H ;.F & g R T k T +.^ h H z B S.-.).b...W $.X.M.z M x e c a i z ",
"c.x.` ` P =.b._ g D / H ) H p T H f g g ^ ^ R J H ^ X.# H Z ^ ) l._ S c h k g k ^ A H J J M +.^ +.S.c... .{ G.M.> I K e & r p e ",
"F.H.=.l._ ^ +.H c ` @...` ` p Z ) A P a P k R _ I ^ 1.Z < c H.P.I l.A Z ^ ~ h j H ^ p d F H ^ ^ +.J I W k  .@.f.6 g $ a A e t e "
};
