/* XPM */
static char *_5511_d8a426f2aac7ec6d42c7e09f3529d2cdc40f60806bb25096cd06c3e3a8700e33[] = {
/* columns rows colors chars-per-pixel */
"64 64 255 2 ",
"   c #1E1C1D",
".  c #191515",
"X  c #1C120B",
"o  c #271C1A",
"O  c #2E1916",
"+  c #29221D",
"@  c #31271D",
"#  c #1E1D21",
"$  c #241E22",
"%  c #242223",
"&  c #2C2423",
"*  c #2D2B2B",
"=  c #2C2829",
"-  c #332B2C",
";  c #3B2C2D",
":  c #372825",
">  c #39322C",
",  c #332C31",
"<  c #353333",
"1  c #3B3434",
"2  c #3C3539",
"3  c #3C3938",
"4  c #2D3031",
"5  c #1D2122",
"6  c #491E17",
"7  c #571D22",
"8  c #4A2826",
"9  c #572729",
"0  c #44342C",
"q  c #433433",
"w  c #443A34",
"e  c #443B3C",
"r  c #4B3B36",
"t  c #573837",
"y  c #4D2E32",
"u  c #652B28",
"i  c #663937",
"p  c #753C3A",
"a  c #752F2A",
"s  c #73201D",
"d  c #45423D",
"f  c #49443E",
"g  c #54453C",
"h  c #66433C",
"j  c #7C433D",
"k  c #493D42",
"l  c #703F42",
"z  c #3F4342",
"x  c #4B4342",
"c  c #4A4847",
"v  c #564B47",
"b  c #5D514A",
"n  c #5A5755",
"m  c #534D51",
"M  c #664947",
"N  c #764945",
"B  c #675649",
"V  c #665857",
"C  c #775957",
"Z  c #7A5450",
"A  c #786457",
"S  c #6F6358",
"D  c #725D63",
"F  c #6C6767",
"G  c #756A68",
"H  c #78726C",
"J  c #7B7675",
"K  c #756F71",
"L  c #873937",
"P  c #A13D3B",
"I  c #A6403E",
"U  c #853F47",
"Y  c #824644",
"T  c #895857",
"R  c #965958",
"E  c #8D4D4D",
"W  c #AF5552",
"Q  c #866856",
"!  c #98695F",
"~  c #AE6E59",
"^  c #AE5E61",
"/  c #996A67",
"(  c #997A65",
")  c #857B77",
"_  c #8B6E67",
"`  c #B96B69",
"'  c #AD7472",
"]  c #FC645E",
"[  c #F7665F",
"{  c #ED685E",
"}  c #F95F63",
"|  c #C86B68",
" . c #D96B6B",
".. c #CA736D",
"X. c #DC726E",
"o. c #D87768",
"O. c #D96E71",
"+. c #C97676",
"@. c #D57474",
"#. c #DB7273",
"$. c #D87A7B",
"%. c #ED6564",
"&. c #EE6965",
"*. c #E46B6C",
"=. c #ED6C6C",
"-. c #E86866",
";. c #F56564",
":. c #FC6564",
">. c #F46965",
",. c #FA6964",
"<. c #F56669",
"1. c #FB6669",
"2. c #F36B6B",
"3. c #FB6969",
"4. c #E4726D",
"5. c #E9726B",
"6. c #F5716D",
"7. c #E96D71",
"8. c #F46D71",
"9. c #E37373",
"0. c #EC7273",
"q. c #E1767A",
"w. c #F67775",
"e. c #D45C5D",
"r. c #87827D",
"t. c #998579",
"y. c #A88877",
"u. c #B88C76",
"i. c #C78879",
"p. c #D08671",
"a. c #FB817F",
"s. c #E08371",
"d. c #857D81",
"f. c #BD7F82",
"g. c #EC7E82",
"h. c #7C8083",
"j. c #8B8B8C",
"k. c #898685",
"l. c #988C87",
"z. c #94918E",
"x. c #949493",
"c. c #9C9C9C",
"v. c #999696",
"b. c #918F90",
"n. c #BC8383",
"m. c #A79589",
"M. c #B59A89",
"N. c #A59B97",
"B. c #A98A85",
"V. c #B7A59A",
"C. c #AEA398",
"Z. c #9E9FA1",
"A. c #A4A4A4",
"S. c #ABACAB",
"D. c #A9A8A6",
"F. c #B9AAA7",
"G. c #B6B3AD",
"H. c #B5AEB1",
"J. c #B4B4B3",
"K. c #BCBCBC",
"L. c #B9B6B5",
"P. c #AEAFB0",
"I. c #A99FA0",
"U. c #C98787",
"Y. c #D28C8B",
"T. c #DA8888",
"R. c #D99897",
"E. c #CE938C",
"W. c #E88A8B",
"Q. c #FE8484",
"!. c #FD8D8D",
"~. c #F88786",
"^. c #EA938D",
"/. c #F5928E",
"(. c #FD918E",
"). c #F29C8E",
"_. c #FF8F91",
"`. c #EC9B9B",
"'. c #E89897",
"]. c #F49392",
"[. c #FC9393",
"{. c #FB9498",
"}. c #F29A99",
"|. c #F59897",
" X c #C6AB99",
".X c #DCA79B",
"XX c #CDB19D",
"oX c #C9A58B",
"OX c #F2A59C",
"+X c #DAACAD",
"@X c #CCB3A2",
"#X c #C9B6A8",
"$X c #D5B9AA",
"%X c #C7BCB9",
"&X c #D6BAB4",
"*X c #C6A9A7",
"=X c #E8A6A7",
"-X c #F3AAA5",
";X c #E9B9A7",
":X c #FBB7B7",
">X c #EEB7B2",
",X c #DA9DA1",
"<X c #BEC0BF",
"1X c #C9C3BA",
"2X c #D8C5B8",
"3X c #DBC0AF",
"4X c #E4C3B3",
"5X c #F7C0B6",
"6X c #BFBEC1",
"7X c #E0BEC2",
"8X c #C3C3C3",
"9X c #CDCCCC",
"0X c #CBC8C6",
"qX c #D6CCC5",
"wX c #D6D2CA",
"eX c #D3D3D3",
"rX c #DCDCDC",
"tX c #DCD7D5",
"yX c #CFCED1",
"uX c #FFCDCC",
"iX c #FCC6C5",
"pX c #FFD1CC",
"aX c #E7DCD8",
"sX c #FFD5D4",
"dX c #FEDAD6",
"fX c #FEDCDB",
"gX c #F7DADA",
"hX c #EACFC8",
"jX c #E3E1DD",
"kX c #EAE5DF",
"lX c #F5E2DD",
"zX c #FBE2DE",
"xX c #F3E6DA",
"cX c #DFDFE1",
"vX c #FADEE4",
"bX c #E4E4E4",
"nX c #EAE6E4",
"mX c #EAE9E6",
"MX c #ECECEB",
"NX c #E7E8E8",
"BX c #F6E4E3",
"VX c #FBE3E3",
"CX c #F5ECE3",
"ZX c #FEEAE5",
"AX c #FBE9E9",
"SX c #EEF0EE",
"DX c #FDF3EC",
"FX c #F8F4EC",
"GX c #F4F4F3",
"HX c #FDF6F3",
"JX c #FCFAF5",
"KX c #FDFEFC",
"LX c #F6F9F8",
"PX c #F0EFF1",
"IX c #DEE2E3",
/* pixels */
"Q.0.=.=.6.>.3.[ [ :.:.[ :.:.:.:.:.] ] ] } } :.1.1.1.} :.:.:.} <.<.-.#.-XiXdXvXvXBXAXBXVXVXVXVXvXVXvXVXVXVXAXAXAXvXvXvXvXvXsXuX7X",
"~.a.w.=.&.2.6.,.[ [ [ [ :.[ :.:.:.] ] ] } 1.} 1.} :.:.1.1.:.} <.<.8.X.`.iXzXAXVXAXBXAXBXBXVXVXvXvXvXzXVXBXAXVXVXvXvXvXvXsXuX>XY.",
"!.!.Q.w.=.>.>.,.:.;.[ :.] :.] :.:.:.:.:.1.1.:.} 1.:.} 1.:.:.;.>.&.=.X.OXpXdXVXgXvXBXVXBXVXVXVXVXVXvXVXVXBXAXBXBXAXVXvXvXuX+XY.+.",
"!.!.!.~.w.&.>.{ >.:.,.:.:.:.] :.] :.:.:.1.:.1.:.:.1.:.1.1.3.;.>.&.4.@.-XpXdXVXVXVXBXBXVXVXVXVXVXVXVXVXVXVXBXBXBXvXvXsXuX:Xg.@.@.",
"(.(.!.!.Q.w.6.&.&.>.>.,.:.:.:.:.:.:.3.3.3.3.1.:.:.:.:.:.1.1.>.>.{ 4.o.R.hXdXzXlXBXfXVXVXVXVXVXVXVXVXVXvXvXVXBXVXzXdXuX>Xg.O.O.7.",
"[.[.[.(.!.~.a.w.&.%.>.>.,.,.:.:.:.:.,.:.:.:.1.3.1.:.;.;.;.;.>.>.-.o.~ j Q @XlXlXVXVXVXVXVXZXVXVXVXVXVXVXvXVXVXVXzXiX:XW.| *.7.8.",
"[.[.[.(.!.!.~.a.w.5.&.>.>.;.;.3.3.1.;.;.;.;.:.3.1.;.} ;.;.;.;.6.4.| a 6 8 r F.lXVXVXVXVXVXVXVXVXVXVXVXvXVXVXVXsXiX:XT. .0.%.<.<.",
"[.[.{.[.(.(.!.!.a.w.6.&.>.>.:.3.1.:.:.} } ;.1.;.;.;.;.} ;.;.>.=. .W s h B > B hXAXfXVXVXVXVXVXVXVXVXVXAXVXfXsXuX:Xs.#.*.2.<.<.1.",
"{.|.|.[.[.(.(.(.(.Q.a.5.{ >.,.,.1.} } } <.} ;.;.;.<.<.<.[ >.%.5. .L u N M V M 2XBXfXVXVXVXVXVXAXAXBXBXVXvXvXsX:XW.o.7.=.;.>.1.3.",
"{.{.|.[.[.(.[.(.(.(.a.a.6.{ >.3.1.1.} 1.3.<.>.>.<.<.%.<.%.2.&. .X.L i N v b V l.aXvXVXvXVXZXVXVXVXVXVXfXvXgX:Xg.#.*.<.<.>.1.;.1.",
"{.|.[.[.[.[.[.[.(.(.(.a.a.6.>.2.<.1.1.1.2.8.*.=.0.0.7.7.7.7.*.X.` Y N C V k V G %XxXVXzXgXgXVXzXlXVXvXvXuX:XW.O.7.8.8.1.;.1.1.:.",
"|.[.[.{.{.[.[.[.(.(.(.(.!.Q.w.2.<.<.<.8.8.e.W P W @.g.#.#.$.| ` R u y V V e m D N.lXlXVXBXlXzXzXdXxXgXvX:Xg.O.*.=.<.<.<.:.1.1.,.",
"[.{.[.[.[.{.[.[.[.[.!.[.!.~.Q.w.8.%.8.7.4.I s s L E | +.+.` R p u 9 : ; k 2 k q A aXVXaXBXVXVXzXgXdXsX5X'.@. .*.<.1.1.1.1.:.,.:.",
"[.[.[.[.{.[.{.[.[.[.[._.!.~.!.!.g.0.7.O.| s a Y p u p R E p i t t t q k q 1 q $ v 0XHXnXBXBXAXfXpXpX:X^.@.9.8.%.<.:.1.1.:.:.,.:.",
"{.[.{.{.[.[.[.[.{.[.[.[._._._.!.~.g.q.$.| a Y N N h i y 6 8 8 : : ; 1 q 2 2 q : q _ tXMXPXgXVXfXpX:XY.@.4.*.;.;.1.:.:.:.:.] :.] ",
"[.[.[.{.[.[.{.[.{.{.[.{._._._._.!.~.W.s.+.L Z t t C M O O : > > % % - , 2 k 2 - & : I.vXAXBXdXuX5X'.#.9.*.&.<.:.:.:.] ] ] ,.:.:.",
"{.[.{.[.{.{.[.{.{.[.[.[._.[.[.{._.{.|.W.p.E E h g g g : O : > * % $ , J b.V e , $ $ ) aXvXvXuX:X`.$.4.=.2.>.,.:.:.[ ] :.:.:.:.] ",
"{.{.[.[.{.[.[.[.[.[.[.[._.[.[.[.[.[.{.].W.' T C g d ; o - = 4 * % $ 2 H.6XF k 2 $ , _ vXvXuXiXR.$.9.-.=.<.3.>.:.:.] :.:.:.] :.:.",
"(.[.(.(._.[.[.[._.[.[.(.[.(.[._.!.[.[.^.`.U.! Q g - + & = - n v.K - : J d.k x n m G v.vXsX:X`.g.4.0.%.<.3.;.;.:.,.,.,.:.1.,.:.,.",
"[.[.[.[.[.[.[.[.[.[.[.(.[._._.[.!.(.(./.^.R.' Z : @ & < - 2 J 0XL.v ; k k k m n n N.7X7XuX`.O.q.4.-.2.<.;.;.:.,.,.,.:.;.:.1.1.:.",
"[.).[.(.[.[.(.(.[.(.[.[._._._._._._._.].^.=Xu.t + @ * 4 < < v J k.n f f k x m 3 q N.&X>X}.@.O.8.2.%.<.,.1.;.} 1.1.:.1.:.1.1.} 1.",
"[.(.[.[.[.[.).[.[.[.[.[.{._._._.[.[.{.].}.'.' i > + > 3 4 < f f f f g f k m J K V F.&X,Xf.O.7.<.3.;.1.;.;.1.1.:.:.1.} 1.:.:.} } ",
"[.[.(.[.(.[.[.[._.[.{._.{._._._._.{.{.].'.R.T t 0 > z < < z n d f S H n m F I.0XH.%X+Xf.| O.-.;.3.:.:.:.:.:.1.:.1.:.1.:.1.:.1.} ",
"[.[.[.[.[.[.[.[.{._.{._.{.{.{.{.{.{.|.].'.R.T t d > c F j.F < d h.G.wXx.F D d.L.9X*X*Xf...*.%.;.:.:.[ :.:.1.1.} :.:.} :.:.:.1.:.",
"(.[.[.[.{.[._./._.].{.{.{._.{.{./.{.}.}.`.E.T t w 1 r.8XjXD.n H 1XjXmXA.n 3 1 k.H.F.,Xf.g.*.=.} ] ] ] :.:.:.1.:.:.:.:.:.] :.:.] ",
"[.[.|.(.[.[.].[.{.{.]._.{._._.]._.|.{.}.`.E.N r w 1 J eXmXeX9XqXjXjXMXv.<   5 F H.*X*Xf.O.O.;.;.] ] ,.] :.:.:.:.:.:.:.:.:.] :.] ",
"[.).[.(.[.).(.(.[.[.[.{.[.[.[.[.{.[.{.}.`.E.N y d > e v.tXjXjXjXkXjXkXG.m , 2 F v.*X+X,X+. .<.;.,.[ :.:.:.:.:.1.:.:.1.1.:.,.:.:.",
"[.[.[.[.(.(.(.(.[.[.(.[.[.!.!.!.(.(.[.].}.U.p y r 1 & 2 j.1XwXtXjXwXwXG.K z k F d.F.7X=Xf.*.-.<.,.>.;.1.:.<.<.<.1.<.;.1.,.,.:.:.",
"(.(.(.(.(.(.!.(.(.(.[.(.(.!.!.!.!.!.]./.|.T.p 8 q ; = $ e K G.tXwXG.C.k.K F G k.x.F.&X,X+.X.*.-.5.{ &.>.<.<.<.<.3.<.3.3.3.>.,.3.",
"a.a.Q.Q.a.a.Q.Q.a.a.Q.Q.Q.Q.Q.Q.Q.Q.w.~.~.f.U 8 q r < 2 - - S L.wX1XA.r.J k.b.l.N.*X X' +.@.X.4.5.5.=.6.8.8.8.8.8.8.8.1.2.2.2.2.",
"w.w.6.6.w.6.6.6.6.w.2.6.6.6.6.6.=.5.5.9.g.+.N 8 8 e 2 2 1 < 3 r.1X1XL.F.l.l.l.m.F.*XB.R Y.W.W.~.~.!.~.Q.Q.Q.Q.Q.Q.Q.g.g.Q.g.Q.Q.",
",.3.3.>.,.;.>.;.,.,.,.;.,.>.:.>.&.6.7.*.@.+.Y 9 : - < , - 1 1 n D.wX8X%XF.C.I.I.m.l.C R Y.'.]././.[.(.[._._._._._._._._.!.!.!.!.",
";.;.;.1.:.1.<.;.>.[ [ [ [ [ [ ,.<.<.<.*.7.f.u 7 r 2 - % + = * 3 F S.%X%XG.F.C.l.V y 9 u +.`.`.{.].]._._.(.[.[.[.!.!.!.!.!._.[.[.",
":.:.1.1.1.1.:.:.,.,.,.,.,.,.] ,.} <.<.%.g.^ 7 k V x < = + 5 % # 4 H z.z.l._ A V y : 8 9 ' ,X'.}.].]._.].|.(.[.[.[._./.!._.[.[.[.",
":.:.:.:.:.:.:.:.:.:.,.[ ,.] ,.] } <.<.g.7.W 7 l v q * = % 5 % # . = d f v b b g l v l T ' f.R.`.}.^.]._.(.[.[.[.[.[.[.[./.[.[.[.",
":.1.:.:.:.:.:.:.,.:.,.,.[ [ ] ] } 1.} *.g.W 7 7 q = o % * * = 5 5     + - r f g k M k 9 i Y R f.^.}.{.].|.).[./.[.[.(.].[.[.[.[.",
":.:.:.:.:.] :.:.:.,.] ,.] ] ] ,.} ;.<.=.g.E 7 O o . . $ * z c d k %   + o + @ > y y y t l l l R R.}.^.[.].].[.[.[.[.[.(.[.[.[.(.",
":.:.] :.:.] :.:.:.:.,.,.,.] ] ] :.1.=.7.g.E 7 8 $ $ # # & 3 n K F f > @ X o O X O O q k V D C _ +.'.|.]./.[.[.[.[.(.[.[.[.(.[.!.",
":.:.:.] ] :.] :.:.,.,.6.,.] :.] ;.;.=.*.@.U 8 y , * # .   & d G l.k.H f @ X X o $ X $ y V K _ T ' '.}.]./.].[.].[./.[.[.{.!.!.!.",
":.:.:.] :.] :.] :.,.,.,.,.:.] ,.;.%.8.O.` p y q , 4 4 , = + + & v H l.r.B d @ @ O O . $ k k B M / R.`.|.].{./.!.[.!.(.[.[.[._.!.",
":.:.:.:.[ :.:.:.:.:.1.:.:.:.[ ,.&.-.9.@.^ i y q < c h.A.Z.k.H v w n C.1X2X3XC.t.w 5 X > c n V M N f.`.'.}.{.~.].!.!.!.(.[.[._._.",
":.:.:.:.] ] ;.:.} :.1.:.] [ { { -.4.#.+.T 9 8 ; 3 z h.<XjXjXwXG.D.2XaX2XwXhXxXxXt.w + d n m x H _ / f.,X`.}.|.~./.!.(.[.[._.[.{.",
":.:.] :.[ :.] :.} :.1.;.;.{ { { o.o...~ j 8 q ; 4 4 4 z J G.0XjXaXF.) M.1X2X#X2X1XC.v > f > @ S B.d.T ,X=X`.|.]./._._._.{.{._.{.",
":.:.:.:.:.:.] ] ] ] ;.1.2.6.{ s.s.p.i.~ h 8 r < 4 5   . < r.G.G.t.S B y.V. Xu. XXX1Xy.f @ > S r.d.n./ f.,X`.'.].]./.].{.{.{.{.{.",
"] :.:.:.[ :.] ] ] ] ;.<.{ o.o.o.p.i.p.y.g 0 w * = 5 5 4 @ w g g 0 g Q u.y.t.u.V.V.$X2Xu.S S t.m.M.*Xf./ ' E.).OX].[.[.[.{.{.{.{.",
"] :.:.:.:.:.,.,.] ] 1.%.{ { p.p.i.i.u.y.B w > * * * 5 = < > @ 0 g B r.Q Q y.u.oXoX#X3X#XG.C.#XV.B.M.B./ u.y.p.OX^.)./.[._._.{.{.",
"} } :.;.1.,.3.1.[ [ ] [ s.s.p.p.u.u.u.y.g w 1 < 4 4 * * > > r g h B A y.u.XXXXXX$XXXXXXX#X#X2X3X&X$X X+X.Xi.i.).).)./.(.(.(.!._.",
"} } <.;.>.3.1.1.,.[ { s.{ W P ~ y.y.t.r.g d < < < * * - @ 0 g B A A y.u.XXXXXXXXXXXX#X#X$X3X3X2X2X4X$X;X;X;X5X-XOXOX).)./.|.!.!.",
"2.2.=.=.=.2.=.<.=.=.0.9.| ~ ` u.y.Q Q A d d 3 < < 4 * - w g B A t.M.V.XXXXXXXXXX XV.#X&X#X3X$X@X@X&X4X4X3X4X;X5X-XOX}.|.}.).|.}.",
"9.O.X.O.X.#.X.X.O.O.@...+.p.oXi.V.y.u.t.b 0 > 4 4 * > 1 g v b A t.y.u.C.M.V. X#X#X#X$X2X1X&X#X#X@X$X4X3X4X3X3X4X4X;X.X.XR.'.R.'.",
"Y.Y.Y.Y.Y.U.R.Y.U.Y.Y.U.oX;X3X$X@X3X1XV.H n n n n n n H H S G r.t.t.t.y.y.N.m.N.C.V.#X1X2XwX2XhXhX4XwX2X2XwXqX4X4X&X$X+X;X+X+X=X",
"fXsXfXfXsXsXfXsXsXfXfXfXxXxXCXCXCXCXCXFXxXkXkXmXNXNXkXMXMXnXxXxXFXCXCXCXCXCXCXxXCXFXCXDXDXDXDXDXFXJXDXJXCXJXDXDXDXZXZXVXAXVXVXZX",
"HXDXHXHXHXHXHXDXHXDXDXJXJXJXDXJXJXFXJXJXJXKXKXKXKXKXKXKXKXKXJXJXJXJXJXKXJXJXKXJXLXJXKXJXKXJXKXJXJXJXJXKXJXJXKXKXHXHXHXHXHXHXHXHX",
"HXKXHXLXKXHXKXKXKXKXJXJXJXJXJXJXLXLXLXJXJXLXKXKXJXKXJXKXLXJXKXKXJXJXJXJXKXKXKXKXJXJXJXJXKXKXKXJXJXFXJXLXJXJXKXLXJXKXKXHXKXKXKXKX",
"LXKXLXKXPXPXPXLXSXMXSXSXKXSXmXFXLXLXJXSXJXKXSXFXKXSXSXSXJXKXMXMXSXGXKXGXMXMXGXKXNXLXGXLXSXSXMXKXSXSXMXLXJXMXMXNXGXMXLXLXKXLXJXLX",
"KXKXKXbXP.Z.P.NX8Xb.h.D.yXD.v.Z.MXKXL.c.SXGXD.S.eXA.c.D.NXrXN.c.j.IXLX1Xx.A.A.8Xc.NXLXK.x.P.yXIXZ.Z.D.IX8Xj.k.S.9Xj.NXKXLXKXLXKX",
"KXKXLXcXyXrXZ.yXMX<XS.tX6X9XcXH.yXHXH.d.cXbXj.j.D.0XjXL.8XL.8XyXj.NXKXK.J.rXb.j.c.rXPXP.L.eXIX<X9XrX6XyXNXK.J.rXA.v.cXLXKXKXKXKX",
"KXLXKXLXcXH.j.8XLXeXK.bXS.cXKX9X6XPXH.I.H.6XA.x.v.mXJX9X<X9XZ.Z.j.NXKXJ.Z.A.j.h.<XP.NXP.Z.A.Z.c.IXKXyX<XNXrXJ.mXc.8XA.NXKXLXKXKX",
"KXKXGXaXrXrXD.eXLXyXK.cX6X9XbX6X9XPX8XK.j.b.yXc.D.9XbXL.8XmXc.0Xb.IXLXK.K.IXP.b.x.K rXL.6XeXk.c.yXMXL.0XLXrXP.P.b.j.J IXKXKXKXKX",
"HXLXKXbXS.S.D.MXKXyXK.PXNXS.S.I.bXLX8XeXJ.S.rXJ.eXS.D.S.mX8X9XNXA.NXKX1XeXSXS.eXjXJ.0XL.A.S.c.9XS.A.A.MXGXeXL.c.eXbXL.9XKXKXKXKX",
"KXKXLXLXGXMXGXGXKXLXGXLXHXPXMXPXLXKXGXLXLXLXKXLXJXSXNXSXLXLXKXHXHXLXLXLXGXGXGXKXKXKXGXGXSXMXGXKXMXMXGXKXLXKXGXGXLXKXJXGXLXKXKXKX",
"KXKXKXKXKXKXKXKXKXKXKXKXKXKXKXKXKXKXKXKXKXKXKXKXKXKXKXKXKXKXKXKXKXKXKXKXKXKXKXKXKXKXKXKXKXKXKXKXKXKXKXKXKXKXKXKXKXKXKXKXKXKXKXKX",
"KXKXKXKXKXKXKXKXKXKXKXKXKXKXKXKXKXKXKXKXKXKXKXKXKXKXKXKXKXKXKXKXKXKXKXKXKXKXKXKXKXKXKXKXKXKXKXKXKXKXKXKXKXKXKXKXKXKXKXKXKXKXKXKX",
"KXKXKXKXKXKXKXKXKXKXKXKXKXKXKXKXKXKXKXKXKXKXKXKXKXKXKXKXKXKXKXKXKXKXKXKXKXKXKXKXKXKXKXKXKXKXKXKXKXKXKXKXKXKXKXKXKXKXKXKXKXKXKXKX"
};
