/* XPM */
static char *_5774_0255143a990bd656c47bbe47ee728ddcc10e4f232506333f3ac9caae3723c84f[] = {
/* columns rows colors chars-per-pixel */
"64 64 255 2 ",
"   c #010001",
".  c #0B0202",
"X  c #0A060C",
"o  c #130303",
"O  c #1C0402",
"+  c #130B0B",
"@  c #1A0906",
"#  c #17110D",
"$  c #0C0617",
"%  c #170B18",
"&  c #191414",
"*  c #220504",
"=  c #240A04",
"-  c #2B0B04",
";  c #230D0C",
":  c #2A0C0B",
">  c #2C0506",
",  c #320B05",
"<  c #370807",
"1  c #2B130C",
"2  c #281109",
"3  c #341206",
"4  c #3A1506",
"5  c #34140B",
"6  c #3B140A",
"7  c #381B0A",
"8  c #230E16",
"9  c #221213",
"0  c #2A1718",
"q  c #361A17",
"w  c #3A241A",
"e  c #352114",
"r  c #160D2A",
"t  c #150B24",
"y  c #1A1329",
"u  c #191335",
"i  c #140C2B",
"p  c #261725",
"a  c #361E24",
"s  c #241A3A",
"d  c #321E37",
"f  c #2B2B2B",
"g  c #282424",
"h  c #3B2524",
"j  c #342C2C",
"k  c #3A2927",
"l  c #3A3736",
"z  c #332C30",
"x  c #450D09",
"c  c #441A0B",
"v  c #4C1C0B",
"b  c #461509",
"n  c #58170B",
"m  c #451C14",
"M  c #581B16",
"N  c #4C0F0B",
"B  c #6B1C0F",
"V  c #4C230C",
"C  c #46250D",
"Z  c #56280D",
"A  c #492719",
"S  c #532C1B",
"D  c #592A14",
"F  c #56341C",
"G  c #4F3117",
"H  c #66260E",
"J  c #672A13",
"K  c #762814",
"L  c #6C3314",
"P  c #683719",
"I  c #773115",
"U  c #462B27",
"Y  c #582B24",
"T  c #49322B",
"R  c #53342B",
"E  c #5C3B2B",
"W  c #583728",
"Q  c #483836",
"!  c #5B3C34",
"~  c #553A36",
"^  c #472D31",
"/  c #662923",
"(  c #613C2B",
")  c #653A27",
"_  c #643E34",
"`  c #753B2C",
"'  c #6A441B",
"]  c #784319",
"[  c #78501F",
"{  c #5B423A",
"}  c #69432D",
"|  c #764828",
" . c #6C4935",
".. c #684639",
"X. c #734A34",
"o. c #734C3B",
"O. c #754736",
"+. c #78513B",
"@. c #6F533E",
"#. c #261B43",
"$. c #2F2848",
"%. c #1F1A42",
"&. c #4C3F43",
"*. c #494645",
"=. c #564746",
"-. c #5A5658",
";. c #514A4F",
":. c #684C44",
">. c #724B43",
",. c #6D5248",
"<. c #755343",
"1. c #7B5543",
"2. c #7C5B4B",
"3. c #795747",
"4. c #675B59",
"5. c #755954",
"6. c #7D6358",
"7. c #6B605C",
"8. c #686668",
"9. c #756666",
"0. c #757575",
"q. c #767877",
"w. c #75767A",
"e. c #7A7778",
"r. c #737070",
"t. c #635E67",
"y. c #86392B",
"u. c #832718",
"i. c #84471B",
"p. c #834939",
"a. c #85573B",
"s. c #8F4C2F",
"d. c #833C40",
"f. c #845B44",
"g. c #865A46",
"h. c #855D53",
"j. c #8E504E",
"k. c #8B644C",
"l. c #886249",
"z. c #956A4D",
"x. c #93664A",
"c. c #8B6553",
"v. c #8D6954",
"b. c #886659",
"n. c #936C54",
"m. c #926C5A",
"M. c #966754",
"N. c #9C7356",
"B. c #95715B",
"V. c #9C745B",
"C. c #997455",
"Z. c #A17453",
"A. c #A47A5C",
"S. c #A6795B",
"D. c #A7695C",
"F. c #8B6C64",
"G. c #936B62",
"H. c #947263",
"J. c #9B7463",
"K. c #9C7965",
"L. c #9B7A6B",
"P. c #857B7A",
"I. c #8F7770",
"U. c #A47C63",
"Y. c #A27D6A",
"T. c #A77966",
"R. c #AC766C",
"E. c #A35650",
"W. c #AA815F",
"Q. c #96847F",
"!. c #80807E",
"~. c #AC8264",
"^. c #A4816D",
"/. c #AB846C",
"(. c #A98569",
"). c #B28565",
"_. c #B48A6C",
"`. c #B6896B",
"'. c #A58372",
"]. c #AC8572",
"[. c #AB8876",
"{. c #B18572",
"}. c #B48C74",
"|. c #B78D79",
" X c #BA9375",
".X c #B5927C",
"XX c #BC947A",
"oX c #BE997B",
"OX c #B69274",
"+X c #BD906F",
"@X c #C29675",
"#X c #C2967B",
"$X c #C39B7D",
"%X c #CA9D7D",
"&X c #C59876",
"*X c #C4887C",
"=X c #CBA07E",
"-X c #7D7A86",
";X c #817E8D",
":X c #837D83",
">X c #827F92",
",X c #888588",
"<X c #978987",
"1X c #878694",
"2X c #979699",
"3X c #94918F",
"4X c #A48483",
"5X c #BC9784",
"6X c #A49B9A",
"7X c #A3958C",
"8X c #B9A297",
"9X c #9E9EA3",
"0X c #A19CA2",
"qX c #9FA2A3",
"wX c #A8A7A8",
"eX c #B5ABA9",
"rX c #AEACB1",
"tX c #B9B7B8",
"yX c #B7B1AD",
"uX c #9EA39D",
"iX c #C59C83",
"pX c #C49C87",
"aX c #C18682",
"sX c #C6A183",
"dX c #CBA385",
"fX c #C3A28D",
"gX c #CDA58A",
"hX c #CEAA8C",
"jX c #CFA985",
"kX c #D1A584",
"lX c #D1AC8C",
"zX c #D2A888",
"xX c #D2B08D",
"cX c #CAA695",
"vX c #D1AE91",
"bX c #D2AA9A",
"nX c #D3B394",
"mX c #D5B799",
"MX c #D4BC9C",
"NX c #D3B996",
"BX c #CFB093",
"VX c #D4BBA2",
"CX c #C7B4AD",
"ZX c #E2BFAC",
"AX c #D7C3AB",
"SX c #BDBBC0",
"DX c #DADBDD",
"FX c #D7DBDC",
"GX c #CFCBC7",
"HX c #E3DEDD",
"JX c #DCDDE0",
"KX c #E6DEE1",
"LX c #E7E6E7",
"PX c #EDEEF1",
"IX c #E8E0DE",
/* pixels */
"PXJXDXDXFXFXFXFXFXFXFXFXFXFXJXJXFXFXFXDXDXDXDXFXFXDXDXDXDXDXDXFXFXJXDXFXFXFXFXFXFXFXFXFXFXJXDXJXDXDXDXDXFXFXDXDXDXDXDXDXDXJXJXLX",
"DX;.f Q { j f f f f f f f f f f f f f f f f f f f f f f f f ;.{ z z l &.&.=.=.Q Q l j j f j j f f l 9.Q f f f f j j j j j j z 3X",
"DXf   2 e +                                             . j { ; 2 U ~ :.5.4.5.,.{ k 0 @ .   .     9 4.@           . .         0.",
"DXj . # 2 . .                                         . ^ ;.w T =.5.6.b.b.b.F.F.b.6.5.=.h ; o . . Q =..                       0.",
"DXk @ @ @ O o .                                     . % Q T E :.2.6.m.G.G.H.I.J.J.G.F.b.5.~ q @ @ 4.g                         q.",
"DX~ - - - @ O o o . . . .     .                     X 0 h R :.h.b.m.H.K.L.R.Y.].'.Y.Y.K.b.3.:.k ^ 5.o                         q.",
"DX{ 2 4 3 - - = * O O o . .                     X % 0 h ~ :.g.m.K.K.Y.(./.{.|.|.|.}.}.].R.H.h.>.{ Q + .                       q.",
"LX!.e 2 b 4 4 3 3 - - = O O o o . . . .       X & 0 h Q :.h.m.U.U.U.~.{.}.|.|.|.XX#XXX}.|.{.T.b.>.! h # o                     0.",
"LXeXj @ 3 c c 6 4 4 3 , - - * O O o . . . . + 9 0 a ^ ~ <.c.V.A.A.U./.].|.OX|.@XoXXX#X|. X|.[.R.F.,.! k % .                   q.",
"PXuX# . * 3 4 4 4 4 4 4 3 - - = * O O o o + 8 p a ^ ~ :.3.B.V.A.~.~./.}.OXXX@X#XiXiXiX@XoX XOX{.Y.b.:.~ h + .                 q.",
"LXt.  . o = - , 3 3 3 3 3 - - = * * O O o ; 0 q h ~ _ >.c.J.A.U.~./.`.}. XXX$XiX$XiXiX#XoX X XOX[.L.5.! T 0 o .               q.",
"FXl . o @ * > > * * = - - - = * O O O O @ % p h ^ _ ..h.v.S.T./.{.}.}. XoX#XsXdXdX%XdXiXiX@X#XXX5XR.F.:.T q @ o . . . . . . . e.",
"JXf . 2 5 : ~ :XT * * O O O O o o o O o @ & a ^ _ >.h.m.S.T.`.}. X X#X$X$XiXiXdXgXdXdXdXiXsXiXoX|.[.^.5.R w : @ o X o X o X o P.",
"FXl ; 7 6 U <XHXCX^ O O O O o o o o o . X & a ~ >.h.N.D.S.).|.@X#X#X$XiXdXdXgXhXgXdXgXgXdXgXdX#X|.}.[.H.{ U 1 = * * * O O * * P.",
"DX^ 5 6 6 ^ 7.4.0X6XU O * O o o . . . 9 @ 8 h ..1.n.V.S.W.`.@X%X$XiXdXdXdXhXhXlXhXhXlXhXhXgXgXdXiX.X.X[.5.T q < > > > > < > > P.",
"DX~ 3 5 1 & & g *.8.=.q > > * o o o ; ~ ; 0 T ..f.n.Z.S.W.`.@X=XdXdXdXdXgXhXvXvXvXvXvXvXhXvXlXgXsXXX.X.XH.=.m 6 < < < > < < < P.",
"JXE 3 # + g 8.uXrXrX!.-.T - > > * * ~ ^ * q ~ >.+.z.Z.W.).+X=X=XkXgXjXlXlXnXxXNXnXnXnXnXvXvXlXjXfXoX X.XY.5.U m < < < < x x N L.",
"DX~ @ + # q.8.q.rXrXwX3XeXU , , > m >.8 8 a ~ o.a.z.Z.W.W.@X=X=XjXzXjXlXlXnXNXMXmXNXmXNXnXnXlXgXdX$XOX}.'.5.R m x < < x x N M Y.",
"HXR # + -.qXq.l ,XrXqX,XeX~ , < < ` / > 9 h !  .+.z.Z.W.).@X&X=XzXzXlXxXxXNXMXMXmXMXMXMXmXnXlXlXgXiXOX}.[.F.! m x N n n n B B :X",
"DXl f 0.2X3X,X!.8.1XqXt.Q = , < M d.m 8 0 U !  .s.x.Z.W.).@X=X=XzXlXxXnXnXMXMXMXMXMXMXMXmXnXxXhXdX$XOX}.'.F.:.A x N n B B u.u.4X",
"FX!.2X2X3X1X!.!.-.$.r.l p q < N d./ x : q h R  .+.z.Z.Z.W.@X=XzXzXzXxXnXNXMXMXMXMXMXMXMXMXnXvXhXdX$XOXOX^.F.:.Y v B H K u.K B R.",
"FXt.8.8.1X2X1X,X-X*.{ l : q x / d.N m : 0 U T } X.x.Z.W.S.@X=X=XzXxXxXxXNXMXMXMXMXMXAXMXmXnXvXgXhX$XOXOX^.b.:.W J B K K u.u.K [.",
"FXf X f q.1X3X3X0.z =.=.* < x d./ N >.a 0 U R E X.l.Z.S.).@X%X=XkXlXxXnXNXVXMXMXMXMXMXNXNXvXxXjXhX$XOX(.L.F.,.! / J I K K K K 4X",
"FXf   X l GXwXt.p h &.< < < M d.M j.cXk 0 h W W | x.Z.S.).`.&X%XzXlXlXxXNXMXMXVXVXMXMXNXBXxXlXhXsX$XOX[.L.F.<...) ` I K K K J <X",
"FXf   X X -.*.# X g 9 - < < / Y / R.CXq 0 U R ' } l.Z.W.).+X@X%XkXjXxXxXNXMXMXMXMXMXMXmXnXvXgXhXhX$X X(.Y.G.,...O.T.S.I H H H <X",
"FXf             X X o O - 3 ^ >._ >.3.: 0 U W {  .l.W.).`.+X@X%XkXzXxXnXMXMXMXMXMXVXMXMXnXvXnXgXjX$XOX(.Y.L.2...b.XXh.` H H J I.",
"JXf       X -.-.$   . . @ 2 6.yX..W >.q 0 T R } X.n.W.).+X+X@X%XkXzXxXnXMXMXMXMXMXMXMXMXmXmXvXhXhX5X X(.^.'.b.:.|.T.1.) v n m I.",
"JXf     X -.tXuX8.# . . . 4.CXCX:.A ( T e T R E +.x.n.Z.T.}.@X%XiXzXlXxXnXmXMXMXMXMXMXMXmXmXcXsXoXoX X].'.'.b.k.5XD.M.Y N n S <X",
"JX=.% X 4.tXuXuXtXq.&   { tXyXNX6...W Y q R ! W ( ) ) } } o.n.(. XsX=XjXlXlXnXvXBXhXfX5X}.^.B.n.v.l.B.(.[.'.m.J.{.{.R.A b v v P.",
"HXM./ h.CX0X8.l *.q.3Xf { yXyXyXF...) A U R ! G Y W  . .W S S ) o.V.(.@XdXjXsX$XoX].3.} } ( @.m.^.B.v.v.Y.].J.n.g.R.J.m , < , P.",
"KXj.j.CX0X*.*.*.& # -.-.# -.3X.XF.@.} Y A R W S S  .c.K.].Y.c.} S ( l.). X$XoX(.A.k.} ..2.^.8XcXfX5X^.v.H./.N.n.M.`.H.5 * O O P.",
"HX4XGXeX*.&.2XSX3Xl &   # # j !.I.l.a.} A R _ ( E @.k.J.].[.[.'.m.o.} x.~. X X).C.v.K.5X5X8XfXcX5X5X}.(././.B.V.|.XXL.1 . .   e.",
"PXAX3X7.*.3X2XGXFXyXl   # . o { I.c.z.p.A R .. ...W S S A m m >.3.2.} O.Z.oXiXOXT.T.N.1.E W W }  .1.V.OX]._.B.V.OX#X^.0       q.",
"PXuXl *.,XtXrXyXeXtXl   + o = 2 ..g.a.| S A _ <.1. .} 1.1.>.h.5X].J.V.a.x.iXxX$X#X{.n.m.H.<.2.c.2.v.^.}.}.}.B.V.{. X^.0 .     q.",
"PX<X;.8.qXqXuXyXuXr.# . 0 U m x Y g.a.O.D Y E @.f.l.+.c.K.(.{.|.pXpX{.M.n.sXhX=XlXdX|.{.{.|.{..X.X XoXOX}.(.c.V.|.XXc.@       q.",
"LXF.9.1XqXtXwXtXuX& . 2 W | p.` ` +.g.O.A m E  .l.U.(.n.m.B.T.{.XXpXR.z.V.gXgXsXiX#X{.{.T.T./.XXsXdX$XoX XU.g.N. XoX@.o X     q.",
"IXG.>.I.>X6X0X,Xl . # } a.i.i.i.p.a.x.a.) A R  .l.).sXsX=X$XiXiXiX#XZ.x.A.dXgX5XdXdXgXpXgXgXhXlXxXdX%XoXOXC.f.U.=X~.A o       e.",
"IXE.y...6.9.-.% X 9 } +.s.i.i.i.I | p.s.} 7 R ..l.~.#XdXzXxXlXzXiX`.x.x.~.dXsX$XiXgXlXvXhXhXnXxXxXgX=X&X_.C.f.Y.(.W @ .       q.",
"KXE.y.y.` { 9.Q 1 } +.a.a.| P i.i.i.i.| | G U } l.).&XkXzXzXlXgX%XS.a.g.~.jXsX$X$XzXhXBXvXBXNXNXlXdX%X@X(.n.a. .S 2 o .   . . e.",
"IXE.y.u.K J E :.} s.a.s.| 7 7 G i.i.i.i.p.) A ( f.S.@X=XzXzXhXdX|.S.l.a./.hX=XoX#XdXhXvXhXvXBXBXlXdX@X`.W.z.3.A , @ o o o o X e.",
"IXE.y.s.u.B B n I ` i.` 7 & j w Z ] ] ] i.| A W a.Z.+X%X=XkXjX=X`.Z.a.x.).hXpX#X#X%XiX#XOXoXjXxXjX%X@X).N.v.3.A 5 3 - - : - * P.",
"HXy.B y.s.u.n n n H S 1 g 0.2X,XT C ' ] ] | G F o.C.{.@X%X&XoX_.Z.z.a.x.`.zXdX@X@X&X@X+XW.C.(.oX&X@X`.S.z.k.+.7 3 4 4 c c c v P.",
"HXp.K B K y.K n v b 2 ^ !.2XwXwX!.w e ' ' [ G A ) f.S.~.`.).S.n.a.z.x.Z.#XzXgX#X#X%XoXXXoXW.1.V.).).T.Z.C.k...2 - 3 c V J P ` <X",
"HXp.H H n n P Y 6 = l 2X0X3X1X1X!.l 2 7 D | F A F } +.l.a.l.x.x.+.a.a.S.iXgXgX#X#X#X XiX$XOXz.| +.x.Z.C.z.v.} = = 4 c V D P P [.",
"HXa.I L J n v v q k e.2X1X2X-Xw.8.& # # G ' D A F } } P X.a.g.l.| F O.T.#XpXgX%X/.T.R.pXiXXX}.B.| | z.n.v.l.T 2 3 C C V Z Z D Q.",
"HXa.L I L J Z v R 7X6X3X1X2X;Xr.f X # j } ' F G Y 3.v.X.X.a.g.g.a.) S O.B.{.|./.A.~.5XpXpX5X(.k.N.f.N.n.C.6.G 2 3 7 C V V Z P Q.",
"HXX.H L L L L J V U P.3X1X!.r.8.8.0 k ' ' ' W G G 3.(.C.X.) a.h.l.1.) V ) O.f.n./.oXpXcXpXK.1.}./.C.A.z.v.<.7 2 7 7 C V Z Z D Q.",
"HX .Z D L L K H D v A 0.3Xq.-.;.Q k G ' [ [ | S C { W.W.C.X.S o.n.V.M. .) O.f.R.gXbXpX|.m.E [.iX(.(.C.n.v.} 2 7 7 C C C C Z C Q.",
"HX .v V D L J J J Z V R I.<X=.9 w w C G ' ' [ G w G l.W.Z.N.} v Y +.c.T.{.|.5X5X|.T.M.h.f.V.hX X_.(.n.B.h.R ; 5 7 7 7 4 4 4 3 P.",
"DXE 4 4 c Z J J L Z V C U r.=.w 7 C C Z C G F w e w G W.C.N.m._ D 1.o.1.h.v.G.J.m.R.5XT.M.pXsXOX(.C.v.v.,.&.9 1 q 7 5 , 3 3 4 P.",
"FXT O = - 3 c V V V V V C A w w w C C 7 w l { 7.7.T w @.m.k.c.M.+.j.B.5X5XbXcXZXbXbXR.M.R.iX5XOXC.2.v.,.:.,.0 8 A ) ) ) P D v <X",
"DXj . o o o O = , 3 b c c 7 5 7 7 7 1 ^ =.{ q.uXwXl f G :.c.f.1.h.g.j.R.pXbXcXbXcXR.D.R.{.XXXX/.k.v.2...5.b.^ 8 : A D L P ` L Q.",
"DXf     . .   . . O = , 3 6 6 5 = O T 7.4.&.2XeX7X# 0 T { 3.l.@.p.M.M.E.D.D.J.T.R.R.R.R.{..X.XH.v.b.....c.F.Q p 8 q Z Z H H P Q.",
"DXf                 . @ @ * - : @ 8 z r.:Xt.:XrX!.+ # k T  .v.<.} p.M.D.*XaX*X*XaXaXR.R.|. X[.m.^.2. .h.J.H.Q p 8 : A Z Z D Z Q.",
"DXf                       . o o p 8.$.8.2XwX0X-.l X % 0 k { k.v.X.` O.j.M.D.D.J.D.D.R.R.5X5XY.L.F.@.@.m.Y.B.T p t % 8 q 5 c G ,X",
"DXf                             z tXeX:X0.SXSX:X& X % & g T 2.W.z.+.X.o.+.g.g.h.M.J.R.XX5X5XK.L.6. .B.(.].2.k p t t % % % & 9 P.",
"DXf                               8.0X;X-.;XrXrXp $ % 8 0 q :.L.}.^.v.v.^.^.^.^.].[..XfXfX}.H.F.@.l./.}.Y._ a p r t t t t t r ;X",
"FXf                               y 8.r.:Xw.2X2X% % % % 8 9 T b.'.}.(.(.(..X.X.X.X5XfXfX8X'.m.1.3.[.#X}.k.^ d u r t t t r s u >X",
"FXf                               X $ z -X1X;X&.$ $ p p 8 8 q :.H.'.[.OXXXiXsX5XfXfXfXfX5XH.o.<.Y.iX#X~...d s s r r t t s %.u 1X",
"DXf                                 $ l r.&.y X $ $ % p p 8 : U ,.b.V.[.5XfXsX8XfXfX5X.XY.@.1.Y.oX#X Xn.R d #.u r r r t $.$.#.1X",
"DXf                               $ $ y u $ i $ $ $ % p a 0 0 1 A =.<.2.H.Q.'.[.[.Q.U.v.o.3.Y.|.iX&X~.3.^ d %.u u y i t #.#.#.1X",
"DXf                         X X $ $ t r i i i $ $ $ % % a h q 1 ; q w U ~ { ! { _ ! _  .c.Y.}.iX=X*XB...d #.%.u i i t i u u u -X",
"DXf                         X $ $ u u u i $ $ $ $ $ $ t p h w q ; 8 : 0 0 q q A A _ <.k.N.(. X%X@XU.c.~ $.#.%.u i u t t i u u ;X",
"LX,X0.q.0.q.q.q.q.q.w.w.w.-X-X-X1X1X-X-X>X-X-X-X-X:X;X:X,X<X<X4X:X:X,XP.,XP.<X7X6X8XeXCXCXCXGXZXVXbXeX<X1X1X1X>X>X-X;X;X;X>X>XtX"
};
