/* XPM */
static char *a31279bf593f4d0c8d86d0a62ea8e1a2E6Xe88kXewfKUW1s[] = {
/* columns rows colors chars-per-pixel */
"64 64 244 2 ",
"   c #1C1504",
".  c #140C00",
"X  c #241D0A",
"o  c #231A08",
"O  c #261D11",
"+  c #2A2414",
"@  c #2F2312",
"#  c #38312E",
"$  c #473931",
"%  c #53463A",
"&  c #674C2D",
"*  c #373B54",
"=  c #32354A",
"-  c #3B435A",
";  c #3D414B",
":  c #3A4868",
">  c #39506F",
",  c #47495B",
"<  c #57535C",
"1  c #514D4E",
"2  c #675749",
"3  c #685955",
"4  c #6E5851",
"5  c #776757",
"6  c #454C67",
"7  c #4B546D",
"8  c #485369",
"9  c #575968",
"0  c #445473",
"q  c #4C5A74",
"w  c #4A5A78",
"e  c #535C73",
"r  c #565E76",
"t  c #655B66",
"y  c #635E71",
"u  c #5D616A",
"i  c #4D617D",
"p  c #496079",
"a  c #5C6374",
"s  c #54637C",
"d  c #5C647B",
"f  c #5C6A7C",
"g  c #576476",
"h  c #67656B",
"j  c #766A69",
"k  c #7A716D",
"l  c #646574",
"z  c #646A75",
"x  c #6C6B74",
"c  c #636B7C",
"v  c #6B6D7B",
"b  c #666678",
"n  c #726E7B",
"m  c #786B74",
"M  c #6B727D",
"N  c #67717C",
"B  c #74737C",
"V  c #7C747B",
"C  c #7C7B7C",
"Z  c #787476",
"A  c #403F52",
"S  c #8D715A",
"D  c #8A766A",
"F  c #96766B",
"G  c #856D77",
"H  c #83757A",
"J  c #837B7D",
"K  c #8A7B7C",
"L  c #877775",
"P  c #957979",
"I  c #966973",
"U  c #AE7A6D",
"Y  c #C27B66",
"T  c #B08A5A",
"R  c #8C8279",
"E  c #998679",
"W  c #988573",
"Q  c #A7886B",
"!  c #B48D68",
"~  c #BA976A",
"^  c #A68B77",
"/  c #AB9279",
"(  c #B69778",
")  c #AF946C",
"_  c #BCA36C",
"`  c #C99C69",
"'  c #C59C75",
"]  c #C98A68",
"[  c #CAA769",
"{  c #D9A868",
"}  c #C9A578",
"|  c #D5A876",
" . c #D6B66D",
".. c #E8B96B",
"X. c #E7B779",
"o. c #FAB97C",
"O. c #EBB26E",
"+. c #D2A45E",
"@. c #DCC26B",
"#. c #FEC77B",
"$. c #FED37D",
"%. c #FEDC7E",
"&. c #F1C86D",
"*. c #FDE77D",
"=. c #F9C15C",
"-. c #4D6584",
";. c #5B6B83",
":. c #566986",
">. c #5C738A",
",. c #5F7993",
"<. c #636E83",
"1. c #686F83",
"2. c #657284",
"3. c #6C7383",
"4. c #63758A",
"5. c #6B758A",
"6. c #6C7A8C",
"7. c #67798B",
"8. c #737583",
"9. c #747A84",
"0. c #7B7B83",
"q. c #747C8A",
"w. c #7B7D8A",
"e. c #797684",
"r. c #687D93",
"t. c #747E91",
"y. c #4D5E80",
"u. c #837D84",
"i. c #8A7E83",
"p. c #837B87",
"a. c #907F82",
"s. c #7D828C",
"d. c #77818B",
"f. c #6C8195",
"g. c #748393",
"h. c #7B8493",
"j. c #7C8996",
"k. c #848284",
"l. c #8C8385",
"z. c #83838B",
"x. c #8B848B",
"c. c #8D8A8D",
"v. c #88898B",
"b. c #958B84",
"n. c #9B8B84",
"m. c #91868A",
"M. c #948B8B",
"N. c #9B8C8B",
"B. c #948485",
"V. c #9B928C",
"C. c #96918A",
"Z. c #828692",
"A. c #848B94",
"S. c #8B8C93",
"D. c #848D99",
"F. c #948D93",
"G. c #9A8D91",
"H. c #8C9298",
"J. c #949294",
"K. c #9C9392",
"L. c #989799",
"P. c #8C908E",
"I. c #A38D88",
"U. c #A3938B",
"Y. c #AA9688",
"T. c #B49A87",
"R. c #A39593",
"E. c #A49A94",
"W. c #AD9B94",
"Q. c #A79998",
"!. c #B49C93",
"~. c #BB9C93",
"^. c #B8A18B",
"/. c #ABA298",
"(. c #B9A596",
"). c #8C94A1",
"_. c #B6A9A2",
"`. c #A09CA0",
"'. c #C69D8C",
"]. c #C39D92",
"[. c #C8A587",
"{. c #D8A68C",
"}. c #C7A393",
"|. c #D8A991",
" X c #D8B28F",
".X c #E5AB8B",
"XX c #ECB78B",
"oX c #F5B986",
"OX c #F1AE82",
"+X c #C2AFA3",
"@X c #FECB8C",
"#X c #FAC587",
"$X c #FED788",
"%X c #FDCD92",
"&X c #FDCF99",
"*X c #FFD394",
"=X c #FED39B",
"-X c #FEDB9C",
";X c #FEDB95",
":X c #FEE787",
">X c #FEF888",
",X c #FEEB94",
"<X c #FEE59B",
"1X c #FFE898",
"2X c #FEFE94",
"3X c #FEFD9B",
"4X c #FEF498",
"5X c #FFD4A2",
"6X c #FEDBA5",
"7X c #FEDBAC",
"8X c #FDD5A9",
"9X c #F9DDB7",
"0X c #FEE3A5",
"qX c #FEECA3",
"wX c #FEE4AC",
"eX c #FEEBAC",
"rX c #FEFEA4",
"tX c #FEFEAC",
"yX c #FEF3A9",
"uX c #FEEBB3",
"iX c #FCE5BB",
"pX c #FEEBBB",
"aX c #FDE4B5",
"sX c #FFF2B4",
"dX c #FEFEB4",
"fX c #FFF3BC",
"gX c #FFFEBC",
"hX c #F3DFC5",
"jX c #F5E3C5",
"kX c #FEEDC3",
"lX c #F5E4C8",
"zX c #FDEBCA",
"xX c #F9E6C5",
"cX c #FFF2C4",
"vX c #FFFFC1",
"bX c #FFFEC4",
"nX c #FFFFCB",
"mX c #FEF3C9",
"MX c #FEFFD4",
"NX c #FFFFDC",
"BX c #FEFFE3",
"VX c #FEFEEB",
"CX c #FEFFF4",
"ZX c #FFFFFC",
/* pixels */
"hXhXlXlXjXjXlXlXlXlXlXzXlXzXlXzXzXzXzXzXzXzXzXzXzXzXzXmXzXmXzXmXzXmXmXmXmXmXbXmXbXbXbXvXdXdXtXdXdXtXtXtXrXrX3X4X4X4X4X4X4XyXeXsX",
"hXlXhXlXjXjXjXjXlXlXlXxXzXlXzXzXzXzXzXzXzXzXkXzXzXkXkXkXkXkXcXcXzXcXcXcXnXmXbXvXbXvXvXgXdXdXdXgXdXtXtXtXtXtXtXtXtXtXdXdXdXdXdXfX",
"hXjXjXhXjXjXjXjXxXkXiXiXiXiXxXkXkXkXkXkXkXkXkXpXkXcXkXcXkXfXcXkXcXcXcXbXvXvXbXbXvXvXvXgXvXvXvXvXgXgXgXgXgXgXgXgXgXgXgXgXgXgXgXvX",
"hX9XhX9XhXiXiXiXiXiXaX7XaXaXaXpXpXiXpXpXxXpXkXkXpXkXpXkXcXcXpXcXcXbXfXvXfXbXgXgXgXvXgXvXgXvXvXgXvXvXvXgXbXgXgXgXgXgXgXgXgXgXgXgX",
"9X9X9X9X9XjXiXiXiXiXiXiXpXaXpXpXpXpXpXpXpXpXpXpXpXfXpXfXkXfXcXfXfXfXfXgXgXgXgXgXgXgXgXvXvXvXbXnXnXbXbXbXnXvXbXvXbXgXgXgXdXgXgXdX",
"9X9X9XaX9XaX9X9X7X7X7X7XaXaXaXaXuXaXaXuXeXeX0X0XeXuXfXuXpXfXfXfXfXgXgXdXgXgXdXgXgXgXgXbXbXbXnXnXnXnXnXnXnXnXnXbXvXgXgXgXdXgXgXdX",
"9X9X9X9X9X7X7X8X8X8X6X6X7XwXwXuXuXuXwXuXwXeXeXeXeXuXsXsXsXfXfXsXgXdXdXdXgXdXdXgXgXgXvXbXnXnXnXnXMXMXnXMXMXMXnXnXnXbXvXgXgXdXdXdX",
"9X7X7X7X7X7X7X7XwX7XaXwXwXwXwXwXwXwXeXwXeXeXuXeXeXyXuXsXsXsXsXdXdXdXdXdXdXdXgXdXgXgXvXnXnXMXMXMXMXNXNXMXMXMXMXnXnXnXvXvXdXdXdXtX",
"9X7X8X7X7X7X7X7X7X7X7XwXwXwXwXwXwXwXqXeX0XeXeXyXeXyXeXuXyXsXsXsXdXdXdXdXdXdXdXdXgXvXbXnXMXMXNXNXBXNXNXNXNXNXNXMXnXbXvXgXgXdXtXtX",
"8X7X8X8X7X7X6X6X0X7X0X7X0X0X0X0XeX0X0XeXqXqXqXeXeXeXyXyXsXsXrXtXtXtXtXtXtXtXdXdXgXvXbXnXMXNXNXBXBXVXVXVXVXNXMXMXMXnXbXvXgXdXtXtX",
"5X5X5X5X5X5X5X6X6X6X6X6X6X0X0X0X0X<X<X0X0XqXqXqXqXqXeXqXyXrXrXyXrXtXtXtXtXtXdXdXgXgXbXnXNXNXBXVXCXZXCXZXCXVXNXNXMXMXbXvXdXdXtXtX",
"5X5X5X5X-X5X5X5X5X-X6X-X-X6X<X-X-X1X1X<X1X<X1X<XqX4X4XqXqX4XrXyXrXrXrXtXtXrXtXdXgXnXMXBXVXZXCXCXZXZXZXCXCXCXVXBXMXnXbXvXgXtXtXrX",
"&X&X5X&X&X5X5X5X=X=X-X=X-X-X-X-X-X;X1X<X<X1X;X1X1X1X1X,X4XqX4XrX3XrXrXrX3XrXtXdXgXnXMXNXVXCXCXZXZXZXZXZXCXCXVXBXMXMXbXgXdXtXrXrX",
"%X&X&X&X&X&X&X%X=X=X*X=X*X*X*X-X;X;X;X;X;X;X1X,X,X,X1X,X,X,X4X4X4X4X3X3X3XrXrXtXgXgXbXMXNXBXCXZXZXZXZXZXCXCXVXNXMXnXvXgXtXtXrX3X",
"%X&X%X%X&X%X%X%X%X*X*X*X*X*X*X*X;X*X*X;X;X;X;X,X:X1X1X,X1X,X,X,X4X4X4X2X2X3XrXrXdXgXvXMXNXVXCXZXZXZXZXZXZXCXVXNXnXbXgXdXtX3X3X3X",
"XX#X#XoX#X@X@X@X@X%X@X%X@X%X%X*X@X$X$X*X*X*X$X;X;X:X$X:X:X:X,X:X,X>X>X4X2X2X3X3X3XtXdXbXMXBXVXZXZXZXZXZXCXVXBXMXnXgXdXtX3X2X2X2X",
"XXXXXX#XXX#XXX#X#X#X%X#X#X@X%X%X#X%X%X@X@X%X%X@X*X@X$X$X:X$X:X:X:X:X:X:X>X>X>X2X2X2XrXtXgXMXVXCXZXZXZXZXNXNXMXnXgXtXrX2X2X2X>X>X",
"|.|.|. X X|. X|.|.|.|.|.|.XXXXXXXXoXXXXXXXoXXXoXoX%X@X#X@X@X#X#X#X@X$X$X$X$X$X:X:X4X2X3XtXgXMXVXZXZXZXZXVXMXnXbXtX3X>X>X>X*.:X*.",
"(.}.}.}.}.}.}.}.}.}.}.].|.|.|..X.X.X.X.X.X.X.XXXoXoXoXoX#X#XoXoX#X#.@X$X$X$X$X%.:X:X>X>X2XrXgXgXNXZXZXBXtXrX3X2X>X>X>X*.*.*.*.%.",
"!.!.!.!.!.!.!._.].].].].}.}.].}.].|.}.|.|.|..X.X.X.X.XOXoXo.oX#Xo.#X#.#X#.#.$X$.$.$.$.*.:X>X>X2XrXgXMXdX>X*.>X*.*.*.*.%.%.$.$.$.",
"Q.Q.W.W.Q.!.!.!.!.!.!.~.~.~.~.~.].].].'.}.{.{.{.{..X{..X.X.X.XOXOXo.OXoXoXo.o.o.#.#.#.$.%.%.*.*.:X*.>X:X*.%.$X$.$.#.#.#.#.#.#.#.",
"R.R.Q.Q.Q.W.Q.Q.W.W.W.!.!.!.~.~.~.].].].].].].].'.].'.{.{.{.{.{..X{..X.XOXOXoXo.XX#.#.#.#.$.$.$.$.%.$X$X$.#.#.oX#.#.#.o.o.o.o.O.",
"1.1.1.5.5.8.1.8.8.3.8.3.8.8.B e.e.e.8.e.H e.p.m V p.p.H G H H K K K L P P P P P U I F F U U U U U U ] Y U Y U U U F I F F F I I ",
":.y.>.:.:.y.r y.:.>.;.r ;.d d <.<.c r b <.b 1.d <.b b b b x v v y b V x n p.p.p.m h x G G G I G P U U I I I I P G G p.p.V n B z ",
"y.w r 0 7 4.>.q ;.;.s >.q.d 6.q.3.q.t.w.g.q.8.w.5.8.t.t.w.z.w.w.e.8.9.e.n i.p.p.e.H m H i.H P a.a.I G I G G G H k H i.i.t x x y ",
",.-.0 0 i >.y.-.:.s >.7.4.f <.5.1.;.r <.3.5.5.h.w.3.w.w.w.w.w.Z.Z.p.p.0.e.b n w.w.p.H p.H G K m m p.a.i.i.i.i.H m V x B p.x.z.p.",
",.:.4.r.f.>.f.g.f.f.g.j.g.t.t.5.t.D.t.t.h.q.h.s.9.5.1.w.z.w.t.s.e.w.p.e.z.c.x.p.p.x.i.x.x.M.B.H e.e.m y p.m.m.p.p.i.p.p.x.z.V 0.",
"f.r.f.>.-.4.f.6.>.6.q.7.;.<.t.D.D.Z.H.j.h.A.Z.w.w.v 1.q.c.J.F.x.z.w.M w.w.e.e.B p.K.G.m.G.G.i.H a.a.a.F.G.N.i.m.F.i.l.x.m u.x.p.",
",.7.7.>.f.7.>.f.g.j.q.6.>.w 3.).H.S.z.Z.z.A.Z.H.H.Z.e.v 3.M l b x.M.Q.Q.Q.F.x.V.G.m.G.R.R.m.a.a.a.e.8.p.a.i.H x.c.F.c.x b n B l ",
"f.f.f.g.j.j.g.D.j.6.g.D.).).d.q.8.5.g.q.2.3.q.q.9.5.1.1.v s.t.q.8.5.h.e.e.z.M.Q.n.x.i.x.G.G.G.G.G.a.a.a.i.i.i.i.u.p.e.V x.n y h ",
"7.3.H.d.N f.7.A.A.g.D.s.3.3.7 d t.q.S.S.J.L.S.L.H.F.`.L.L.L.`.S.G.L.F.S.z.p.J.W.Q.F.M.M.~.~.!.I.a.a.I.T.N.N.I.l.i.B.u.u.m.V B 0.",
"j.j.D.D.7.f 4.7.2.2.v r 0 0 -.<.6.;.r d e 7 , 9 < b e.b c <.q.e.w.c.x.S.x.K.G.m.a.m.V m n i.a.a.I.a.a.a.i.a.n.l.l.u.0.p.C k.i.p.",
"7.s.g.d.P.A.j.D.A.g N d.q.B s.Z.0.A.s.c 8.t.3.s f 3.5.9.z.D.Z.l b n b n y 8.x n 1.b r b e.z.l.m.l.m.U.I.N.N.B.N.i.B b z v 8.B 8.",
"f d.j.d.j.A.M g b s.g.g.j.D.h.Z.c.v.S.H.A.S.w.S.F.z.z.z.e.a e v w.F.F.G.`.G.Q.!.K.K.W.R.(.!.!.Y.(.~.Y.I.i.N.m.H M.i.x.M.z.z.z.N.",
"D.d.d.S.H.L.P.A.D.H.v.3.N 9.S.L.k.J.L.c.c.c.z.z.K.Q.J.S.z.d.w.2.d w.c.e.c.x.p.p.M.m.c.i.i.p.m.R.Y.B.I.!.Y.Y.M.l.H J p.0.M.N.M.U.",
"d.f.7.g.d.3.f 8 g 2.d.9.5.e.h.L.L.L.L.c.J V M.R.K.v.c.K.Q.+X_./.U.~.(.R.V.R.M.x.Q.!._.!.J.G.M.m.B.m.I.I.K L n h r 3.s.v.x.K.N.M.",
"= - p i f.>.f p i >.a 9.q.z t e.c.L.P./.(.M.u.V.L.9.1.9.x.G./.Q.V.W.W.m.I.Y.B.H G L D P (.}.(.!.I.~.^.V.E b.b.U.K.8.l.(.T.!.}.!.",
": > p > p :.> :.j.D.s.A.3.c s g 9 M c e.p.V v w.K././.M.x.m.m.C v l y H K b.R w.n i.3 < L ^ P / T.T.I m n.Y.}. X XY.C.N.E.Y.Y.b.",
",.,.f.f.s >.f.6.3.3.6.;.r q <.r : 0 9 e.1.e r g a f N s.3.5.8.q.w.Z.w.k.Z l y p.S.u.e.<.d 7 6 7 7 6 6 6 v B G L i.U.I.G p.V x J ",
"f.f.>.f.j.g.j.>.;.-.:.r.:.: 0 > 0 - : 6 ;.5.j.h.s.S.H.k.B 8.x.F.c.F.z.1.e ;.:.8.v e r e.p.c.x.z.F.c.e.n.0.z.x x r 6 * = 9 r ;.c ",
"f f.>.7.d.j.s.d.j.j.d.f.7.,.y.0 y.:.r.r.5.b y 5.n V p.6.;.:.s s <.d.J.Z.w.H.Z.5.;.<.b 9.3.e.h 9 x h < V n j K M.Z.p.z.3.e f 4.4.",
"f.f f.g p - - 8 9.d.N 7.6.q.5.r.t.D.h.r , - w w 7 r t.S.Z.c.L.Q.Q.x.B 8.J.K.0.e.n v e.w.Z.k.q.r 7 0 w 7 -.7 u B 0.e.b.b.J !.Y.M.",
"d.P.H.L.P.j.j.g.P.P.d.6.e.e q 7 6 b y.w 0 0 6 6 ;.t.A.v.F.Q.l.V k.K.l.e.v 9 a N n z w.F.m.k.9.4.6.5.Z.H.K.F.W.W.n.l.U.U.b.(. X X",
"d.d.s.P.d.N >.f g g : - = = A * = = 0 :.-.y.w y.-.4.j.e.n x a r v B 3.9.8.w.e.z.F.Q.K.F.R./.Q.c.Q.!.Y.N.l.n b y q s d c 8.C.K.Y.",
"- > > p u p p p > > 8 = = = = * : : > 8 7 e <.5.d.9.z q q w s ;.<.2.h.v.z.s.c.c.M.F.Q.(.}.W.Y.T.!.Y.Y.N.l.e.k.V.w.w.3.c.N.N.K l.",
">.>.p p q N d.f.f.f f f.-.-.w > > i i q 7 y.:.<.<.<.2.h.J.D.A.A.s.8.w.Z.J.V.K.C.n.W.W.T.n.b K I.I.W.I.n.U.!.I.V l.b.C.J.B.j t B ",
"d.P.P.C.C._./.E./.E + x ).f.s.j.g.H.3.3.f.q.Z.J.L./././.K.K.K.k.8.s.s.c.E.K.w.8.c.B.j e : : * * 6 e t m w.3.M z.p.w.s.e.a 3.3.q.",
"8 f f.d.u < N N C C.X   k _./.K.V.M.l.P.c.c.N.N.Y.^.(.^.C.C.U.K.U.C.M.U.E n r c Z < e c s w r :.2.b b 5.q.F.L.J.R.V.M.p.q.q.9.M.",
"/.`.P.H.L.P.C.x ; X o   X 2 j b.E.v 9 9 K U.K k.V.V.b.R k.V.W.C.J x v l a s 0 * * - : 7 s <.g.9.b p.5.r 6 < t 9 t m E H K b.K R ",
"R ^ ) R 2 % @         o       # j q.:.s 6 7 u 8 9 u z B c.M.C g e a c 3.2.;.;.i w w q 0 w f g r p.8.;.s r e r l V 0.q.f 7 0 :.5.",
"; +   . .     o X o       X @ X X % R C.c.8.w.C u.K C k.R s.d.v.c.s.s.w.6.;.f i s 7.d.v.L.K.S.k.0.1.e.B M M B e.e.z <.w.B.R.Y.T.",
", + X # # @ X o   o X X + + + @ + X # k U.T.^.T.T./ T.T./ R Y.}.E b.0.C C u.C.K.b.V.Y.T.T.b.R B u.z.8.<.<.c 3.0.b.Y.T.[.[.( ^ Q ",
"N C J R C h h u ; + X X X X X X X X X $ Y.T./ I.E h C R E E ^ Q Q ( ^ Q ( } / n.E n.b.I.I.T.T.^.^.Y.n.i.m.N.I.!.T./ E L j D ^ ) ",
"C Z M 3.2.;.s > = - 0 1 #             . 2 ^.^ U.^ R R K R E E W j 8 7 9 t Z k L k.J W ( / Q } | { | | X.| ' W F L ( ' / } X.X.' ",
"M M d.s.3.2.3.2.f -.s q - , g z C z ; + X Z Z ^ [..X X( Y./ / W / Y.T.'  X~ E ^ D L Z h , < D D Q Q ^ Q F D j t < 3 4 H W ^ j j ",
"R R R 9.k.v.C.C.s.d.9.N N g h k k L ^ U.& # m m 3 S [ | ' X.#.XX} ( ^ / | X.} ! ) ^ E R R Z L W P E P E Z H H h x 9 b 1.b r q b ",
"# ; % % % 1 2 5 2 2 W S 2 X   X @ @ $ h F 2 ( ( L j k ^ Q ( ) ~ ' ) 5 j F ) ( ( ' [.[.[._ ^.} [.[.^ E V v v x n e.B v l r r ;.4.",
"# # # $ $ % 1 3 5 5 & & & @ + % 1 # < B C k L ) / / D j F { | | | O...U < 8 6 - , 1 9 u p s g a N e.9.8.8.c 6 : 7 r N M c N N e.",
"e 8 u 2 5 5 5 S S 5 2 ; ; q 8 ; 9 9 x R Z x u 9 = # = = = 3 S Q { { O.o.&.{ / J h 8 - : 6 0 8 8 : > 0 7 7 w -.d 9 9 B J R W K R ",
"p p q u h z h 5 3 1 1 - g f f g z R x t h M 9 8 d f v 9 9 6 9 3 ! S 4 4 S ! | | / R C N d c N 0.E E ^ E E ^ ( ( ( ) ) ^ W Q W L ",
"N N N z g f f z u u u x a h z u z N x R ( ' / B.l.M 2.9.R K k j D Q ~ ) j 5 D ^ (  .@. ._ } ( ( } | O.O.O.{ [ ` { { ` ) Q W F L ",
"z h f g p g f N u < 9 q p e 8 - - - - 6 K ( ' [ [ / R N h j E ^ / ^ ~ ..%...} } } ~ ~ ) _ @. ...&.=.=.&...{ { { { { ! T  .` { { ",
"d.C C C C C C M f N 3.N f c k.c.k.3.;.;.c B Z x k F ! } [ | { {  .X.` Q _  .~ ~ [  . .@._ _ ) [ ..+.[ T T ` { { U S T { ` ` +.O.",
"Z k h < h B L Z z a h M x Z Z l x k.a q e < 9 u h Z W Q Q ! ] ! ! ` { { +.~ ( [ T ~ @.@.[ @.@.@.@.@.@.[ ` [ { ! ! ( { { ` +.+.+."
};
