/* XPM */
static char *cad41e15a7d04e5c89e9e37a9c9e526drVGiIliqMDP80Ckh[] = {
/* columns rows colors chars-per-pixel */
"64 64 256 2 ",
"   c #020101",
".  c #0B0303",
"X  c #0C0C0C",
"o  c #040708",
"O  c #130304",
"+  c #1B0405",
"@  c #1B0608",
"#  c #130B0B",
"$  c #1B0B0C",
"%  c #170708",
"&  c #141313",
"*  c #19191A",
"=  c #120C12",
"-  c #240305",
";  c #2B0305",
":  c #250609",
">  c #240B0B",
",  c #2C0B0C",
"<  c #2A0609",
"1  c #340404",
"2  c #340B0C",
"3  c #3C0B0D",
"4  c #380508",
"5  c #28120E",
"6  c #280E10",
"7  c #271615",
"8  c #371916",
"9  c #3B110E",
"0  c #39241E",
"q  c #25221C",
"w  c #292827",
"e  c #362B28",
"r  c #373737",
"t  c #37332D",
"y  c #1A1921",
"u  c #430405",
"i  c #4C060A",
"p  c #430A0C",
"a  c #4D0A0D",
"s  c #460507",
"d  c #53060A",
"f  c #5B060A",
"g  c #560608",
"h  c #46140D",
"j  c #590C10",
"k  c #4C1413",
"l  c #451917",
"z  c #551817",
"x  c #4B0E10",
"c  c #63060B",
"v  c #6C060B",
"b  c #6C0A0D",
"n  c #64070A",
"m  c #73060A",
"M  c #7B060A",
"N  c #7B090D",
"B  c #750A0B",
"V  c #6C0A11",
"C  c #7B0912",
"Z  c #771814",
"A  c #681815",
"S  c #5B221E",
"D  c #482818",
"F  c #6F251D",
"G  c #4A2B24",
"H  c #532925",
"J  c #47352D",
"K  c #59372D",
"L  c #503B36",
"P  c #642924",
"I  c #762A26",
"U  c #66372A",
"Y  c #653D34",
"T  c #7A3C33",
"R  c #793328",
"E  c #51473C",
"W  c #664339",
"Q  c #764638",
"!  c #704B2E",
"~  c #5C4010",
"^  c #373D47",
"/  c #354343",
"(  c #484848",
")  c #565349",
"_  c #585857",
"`  c #525152",
"'  c #69594A",
"]  c #785749",
"[  c #785D59",
"{  c #6D4E49",
"}  c #766955",
"|  c #756C58",
" . c #5A5C64",
".. c #5C6564",
"X. c #676666",
"o. c #777777",
"O. c #6B7270",
"+. c #87080A",
"@. c #9A070A",
"#. c #890A12",
"$. c #990812",
"%. c #831913",
"&. c #84160F",
"*. c #A70709",
"=. c #BD040E",
"-. c #B70609",
";. c #A80813",
":. c #BD0511",
">. c #B70813",
",. c #AF1713",
"<. c #922717",
"1. c #B13117",
"2. c #862C24",
"3. c #893229",
"4. c #943327",
"5. c #8F312D",
"6. c #A73726",
"7. c #B83824",
"8. c #B02B2A",
"9. c #C40104",
"0. c #CC0304",
"q. c #C4030E",
"w. c #C9040E",
"e. c #C70B0E",
"r. c #D40204",
"t. c #DB0205",
"y. c #D3070B",
"u. c #C9150D",
"i. c #C50311",
"p. c #C90311",
"a. c #C90410",
"s. c #CA0411",
"d. c #C90412",
"f. c #CD0511",
"g. c #CA0411",
"h. c #C50B12",
"j. c #CB0B11",
"k. c #CE0D1A",
"l. c #D10412",
"z. c #D30A13",
"x. c #CB1411",
"c. c #CC1B12",
"v. c #C61614",
"b. c #D61511",
"n. c #EB0A08",
"m. c #CC2414",
"M. c #CC2716",
"N. c #D12715",
"B. c #CD351A",
"V. c #D33817",
"C. c #C63C24",
"Z. c #D72726",
"A. c #D61F1D",
"S. c #8A5C18",
"D. c #9A6715",
"F. c #A77317",
"G. c #894635",
"H. c #9A4332",
"J. c #AA4837",
"K. c #B84A35",
"L. c #B3543D",
"P. c #977738",
"I. c #D74817",
"U. c #DB5716",
"Y. c #CF461A",
"T. c #E25716",
"R. c #DF731C",
"E. c #D76B19",
"W. c #E46716",
"Q. c #EA7A15",
"!. c #E97B0E",
"~. c #CD4C32",
"^. c #EC5734",
"/. c #D86E27",
"(. c #91564D",
"). c #B45A44",
"_. c #86775D",
"`. c #996754",
"'. c #AC6D53",
"]. c #877865",
"[. c #8D7A6C",
"{. c #A77770",
"}. c #D17051",
"|. c #EE734B",
" X c #CF5D54",
".X c #7E857F",
"XX c #D48A11",
"oX c #EC8609",
"OX c #E79A0B",
"+X c #FA9D02",
"@X c #F69708",
"#X c #EB8517",
"$X c #EF9314",
"%X c #FCA402",
"&X c #FEAA02",
"*X c #FAA60A",
"=X c #FFB104",
"-X c #FFB30B",
";X c #F6A517",
":X c #FDB318",
">X c #ECA412",
",X c #F6B733",
"<X c #DA8A2D",
"1X c #FFC03E",
"2X c #95876A",
"3X c #94886F",
"4X c #AD8F76",
"5X c #B09561",
"6X c #CE8751",
"7X c #EF8B50",
"8X c #F4BB4E",
"9X c #D28C6F",
"0X c #E6946C",
"qX c #D8B175",
"wX c #EEA675",
"eX c #CCA557",
"rX c #FDC549",
"tX c #FDC956",
"yX c #FAD16F",
"uX c #787D84",
"iX c #858483",
"pX c #898A8A",
"aX c #959798",
"sX c #8E8F8D",
"dX c #A69C98",
"fX c #AB9585",
"gX c #AFA894",
"hX c #9C9FA2",
"jX c #9DA8A6",
"kX c #A6A7A8",
"lX c #B6B8B9",
"zX c #B0B4B0",
"xX c #C69798",
"cX c #D1B090",
"vX c #FABA88",
"bX c #EBB696",
"nX c #CFB5AA",
"mX c #E4B1B2",
"MX c #EF989B",
"NX c #F9D090",
"BX c #CEC5B5",
"VX c #E6D5BD",
"CX c #F0D1B4",
"ZX c #FAE3AC",
"AX c #FFE79C",
"SX c #BCBEC4",
"DX c #C9CAC9",
"FX c #D8D7D6",
"GX c #D1D2CD",
"HX c #EBD9D0",
"JX c #F1ECD2",
"KX c #EAEAEA",
"LX c #FEFEEB",
"PX c #FFFFFE",
"IX c #F6F5F4",
"UX c #DCE3E3",
/* pixels */
"i.q.q.i.i.p.p.i.i.i.:.:.q.i.i.i.i.i.q.q.q.i.i.d.p.p.p.p.i.j.s.i.p.p.i.i.s.s.i.w.w.p.i.i.q.i.q.q.w.w.p.w.w.w.p.w.w.p.w.p.p.w.w.q.",
":.i.i.i.p.p.i.i.i.:.i.i.i.p.i.i.q.:.=.:.i.i.i.p.i.p.p.i.w.w.s.w.w.w.i.w.i.s.s.w.w.i.i.i.i.=.q.i.p.p.w.w.q.w.q.p.p.w.w.w.w.w.w.w.",
"i.i.:.i.p.p.i.i.i.i.i.q.p.p.i.i.=.q.:.:.i.i.i.p.i.s.p.s.w.w.w.w.w.w.s.w.w.s.s.s.q.p.i.q.i.q.i.i.s.p.p.w.w.w.w.s.d.w.p.p.w.s.w.q.",
"q.i.i.i.i.d.i.i.i.:.=.i.i.i.p.i.i.q.q.q.=.i.i.i.s.w.w.w.w.s.s.s.s.w.s.s.s.s.w.q.q.i.q.=.=.q.i.i.i.q.p.w.s.w.s.p.p.p.p.f.s.s.w.w.",
"p.p.p.i.i.i.i.i.i.i.q.q.i.i.i.i.:.i.i.i.i.i.q.i.q.w.w.q.w.w.w.f.f.w.p.f.w.s.w.i.p.d.i.i.i.i.p.i.q.w.p.p.f.w.w.s.s.s.s.s.w.w.w.i.",
"d.d.d.i.d.p.i.p.p.i.i.=.:.i.i.q.i.i.i.i.p.w.w.w.w.w.q.w.f.w.w.w.w.l.w.w.w.w.p.p.i.i.i.i.:.p.p.l.l.l.f.:.=.q.w.w.i.i.s.s.i.w.s.s.",
"p.p.s.w.p.w.p.p.p.i.q.i.i.i.i.q.i.p.i.w.w.w.w.w.w.w.p.s.w.w.w.s.l.w.f.f.f.s.q.p.i.i.i.i.i.i.l.>.#.+.-.=.9.w.0.l.l.l.f.w.f.s.p.w.",
"f.d.s.s.p.p.d.p.p.i.i.q.i.i.i.i.s.i.w.w.q.w.w.s.w.w.w.w.s.w.w.s.l.w.f.f.f.p.p.p.q.i.:.=.i.>.f O   + =.t.y.t.y.f d >.l.f.w.f.w.w.",
"p.w.w.i.w.j.i.i.p.i.i.i.:.i.i.i.p.p.d.f.s.w.w.f.f.f.f.w.f.f.w.l.w.f.z.w.f.d.d.p.i.q.v.M.6.@       O @.t.r.y.t.g   a b.j.d.f.d.s.",
"w.w.w.s.w.w.w.w.p.i.i.i.i.i.p.i.i.i.d.p.s.s.w.w.f.f.s.f.f.f.f.l.f.f.f.f.f.f.d.j.v.B.$X/.7         o @.t.r.t.t.@.  O ,.N.c.d.w.p.",
"w.w.w.s.w.w.w.w.i.s.i.i.d.p.d.d.i.p.p.w.w.s.s.f.w.p.w.w.p.s.w.w.w.l.f.f.f.w.x.c.u.m.<XJXr           n t.r.t.t.+.    &.b.C.N.N.V.",
"w.f.s.w.w.w.w.w.w.s.d.p.d.d.i.d.p.i.w.w.w.w.w.f.s.w.f.w.p.s.w.w.l.w.j.j.x.x.x.u.h.u.0XPXO.          i t.t.y.t.+.    D W.U.Y.B.T.",
"w.w.f.w.s.w.w.w.d.d.d.i.i.i.p.p.i.i.i.w.w.s.p.s.s.w.w.w.p.f.w.s.w.w.N.N.c.j.x.I.Q.@XyXIXhX          f e.-.-.9.;.O   X >X&X@XQ.V.",
"w.w.w.w.s.s.w.s.d.i.d.i.p.p.p.i.d.i.i.w.w.w.w.w.w.w.w.w.p.p.p.s.p.x.c.f.c.U.Q.*X&X%XtXPXDXo   o     4 p j a V &.2 o   F.-X>XXXE.",
"f.w.w.w.s.s.w.s.d.s.p.i.d.i.i.i.s.d.w.w.w.w.f.f.w.w.w.w.s.p.i.x.c.x.w.V.Q.*X&X%X%X%X8XPXUXX         , j p O 2 5 + .   5 D l i - ",
"w.w.w.f.s.s.w.s.s.s.d.p.p.i.i.p.q.s.q.q.w.w.f.f.w.s.w.s.p.c.M.M.h.v.W.=X&X&X&X&X&X=XrXPXhX          .               o + , 4 .   ",
"w.s.w.z.w.f.w.w.p.p.w.p.d.p.d.p.q.s.s.w.s.w.s.f.l.w.w.j.I.B.B.M.I.@X&X%X%X%X%X&XXXF.S.X.y             . % @   O 3 d p 3 +       ",
"s.w.w.w.w.w.s.w.w.p.p.p.p.p.p.p.p.p.w.s.w.w.w.w.w.w.p.W.W.U.U.Q.*X&X%X%X%X,XeX2Xt & y $ + O + ; 3 p 4 p j C C C f p I >       ~ ",
"s.w.w.w.w.f.s.s.p.w.i.i.p.i.i.d.i.q.w.w.w.w.w.s.w.w.I.R.!.*X;X=X&X%X%X+XtXBX^ y * & 7 w > O 6 e : < p z 9 x z O   z 4.S   o D.-X",
"w.w.w.q.w.s.s.s.i.i.i.q.:.i.i.i.p.s.w.w.e.w.w.w.w.I.$X*X*X%X&X&X%X%X%X8XiXy `  .    5 8 .   gXfXA 8 . X h 7.Z k <.6.}.'.  F.-X%X",
"w.p.w.w.s.s.f.s.i.p.i.:.=.i.i.i.p.p.w.w.i.q.w.w.v.Q.*X&X%X&X&X&X&X&X%X,XsXKXIX(   X ].nX[ t HX9X2.F F A 1.U.}.~.^.0XNXcX8 OX%X*X",
"w.f.w.l.f.f.f.s.i.i.=.:.:.i.q.=.i.i.s.i.p.i.i.w.V.Y.$X%X&X&X%X&X&X&X%X*XyXPXjXo   o ( [.} sXCX1.B.7.1.1.7.~.NX0XvXvX|.6X! -X&X%X",
"w.f.w.w.w.f.f.s.i.q.=.:.i.:.i.=.i.i.i.i.p.p.i.h.v.W.>X@X&X%X&X%X&X&X*XOXXX,XNXVX.X/ r ].L kXLX}.7.1.1.1.2.~.6X6X).vX|.|.! *X&X&X",
"s.p.w.w.w.p.d.p.p.i.p.p.i.q.i.=.q.i.p.q.w.i.h.c.v.#X$X;X>X%X+X*X%X-XqXgX.X5XeX:XtXyXqXfX].].LXJXJ.&.1.Z I 6.Z G.'.wXNX5X! *X%X%X",
"w.w.w.w.i.d.d.d.i.i.i.i.i.i.q.q.q.i.i.w.p.q.x.u.W.;X+XcXE OX8XyXZXVXaX .X.pXP.*X%X+X=XqXG.' JXLX9X1.C.<.4.z P U ' '.cX{ S.=X%X%X",
"w.w.q.w.d.d.d.d.i.i.p.p.p.i.i.i.i.p.p.w.w.h.B.c.#X>X8XGXiXBXnXuX/ X .  .aX) XX&X=X&X%X,X'.fXJXLXHX9X7.F 9 , R G * X J G S.&X&X%X",
"p.p.p.i.d.i.i.p.i.i.p.i.i.p.d.i.p.p.p.i.w.c.m.Y.E.;XaXpXo.w o X / kXIXKXiXr ].rX&X%X%X-X6X9XVXJXJXJXfX# # k F ! G.{ 5 o S.=X%X%X",
"d.i.i.i.p.i.i.d.s.s.p.w.p.p.p.i.p.d.p.p.q.B.B./.R.-XF.o r ` iXFXPXFXO._ o.7 ..sXOX%X%X%X<X2XlXJXHXBX| : 2.2.K G W 5XY $ D.=X%X%X",
"p.i.i.i.i.i.d.s.s.i.w.i.w.p.s.i.d.p.p.i.s.v.Y.R.OX-XCXlXGXKXKXDX` r iXlX_   o aXNX8X:X&X:X' fXPXGXBXY A 6.8 . $ # ] J 7 OX&X%X&X",
"p.d.s.p.i.i.i.s.w.w.w.s.p.i.i.i.p.p.i.i.v.m.Q.oX*XZXDXo.jXIXO.w O.SXzXw ( ( X.O.{.}.qX:X&XOX4XGXJXBXW > l 8 `.(.(.W   D.%X%X&X&X",
"p.p.f.w.i.p.i.i.w.w.w.s.p.d.p.i.p.d.i.i.v.B.$X@XrXFX=     sXDXKXkXX._ iXGXaX  ` L.Y. X,X%XtX4X5.4XdX7 > 5 l U G `.D q ;X&X%X&X&X",
"w.w.w.w.i.i.s.d.w.f.w.f.i.d.d.i.i.i.i.h.M.Y.Q.oXyXjX  &   X.IXo.r ( O.KXsXpX* X.).M.K.vX5X] 5.9 k 0 5 % > 5 @ > > - '.:X%X%X%X%X",
"w.w.q.w.p.p.p.i.p.f.p.p.d.i.i.w.q.i.i.x.V.U.#X+X1XGX&     hXuX` r _ ` [.= X.o.r ).6.~.9X{ Q U h D 9 2 > .   . % O I wX%X%X+X+X%X",
"w.p.p.i.d.p.i.i.p.d.d.p.d.p.d.p.i.p.f.m.V.T.;X*X%XNXGXuXSXDXG.cXsX{ ^ w = ..uX* `.4.7X).. $ G.Q 5 5 , h h ; 2 h <.}.8X%X+X+X+X%X",
"p.p.p.p.d.d.i.i.p.p.d.p.p.w.q.i.i.p.w.c.m.W.@X+X%X%XrXAXZXVX~.J.cXR w r (  .o.& I J.}.|.f   O S Q 8 - , S 4.<.C.C.wX6XOX*X+X+X%X",
"p.p.p.i.i.i.i.i.i.i.i.w.q.p.i.i.i.i.q.c.c.W.oX%X+X>X@X@X*XCX~.1.5.).r ( r ` } 6.J.I '.^.t.+.> , 0 G.! 8 8 S J.~.K.wXY 2 XX&X+X+X",
"f.p.d.i.i.q.i.q.i.i.i.i.i.i.i.q.i.i.q.V.I.Q.@X%X&XW.I.-XXX2XbX7.Z Z `.L r ( `.0XvX9X9XA.r.-.;.p , 0 W W O 8 8 7 O Y J $ k E.*X@X",
"d.d.p.i.=.q.=.i.i.i.i.i.q.i.i.:.:.q.h.h.T.+X@X+X*XI.x.*XS.zXCX^.~.2.P P q 7 I ).0XvX0Xe.*.B -.: B - + Q U O k U * = 6 H 2 c XX=X",
"i.i.p.:.=.q.q.=.=.q.q.=.i.q.q.:.:.i.q.e.N.W.@X%XoXM.x.$XsXzXbX^.^.^.8.%.= ^ T R '.'.0X6.; N -.  #.+.8 9 G.U + F Q e . 7 $ u A XX",
"i.:.:.i.i.:.q.i.i.q.q.i.i.i.i.:.:.i.q.j.p.I.oX=XQ.i.0. XDX( nX5.+.8.C.4.U ^ (.}.vXvXNXL.O d M   : u.n 5 z ! K . 3.T     X 3 @.B ",
"i.i.i.i.d.i.i.q.i.i.=.i.i.i.i.i.q.i.i.w.w.B.#X!.I.k.0. XjX& SX9X7.6.6.4.4.z A }.bXqX'.Z N 4 p     j b.i l l K W 6 2.S   7 e *.0.",
"i.i.d.i.i.s.i.:.i.i.i.i.s.d.d.i.i.p.w.s.q.I.@XW.d.d.9.MX..L hX9X^.^.K.~.4.V A `.'.}.'.7 m 3 -   .   ,.n.z P I e 6 8 I $ = * d t.",
"i.i.p.d.i.s.s.i.i.p.d.d.d.i.i.i.i.p.w.f.d.T.#XI.f.j.9.MXO.[ pXJ 6.1.C.7.~.C.L.wXvXwXMX& < 2 .       : b.f.2.z 6 % 6 l T I L p 0.",
"q.i.i.i.h.w.s.q.i.f.f.w.i.i.d.d.i.i.p.w.i.T.#XN.f.l.9.mXsX .[.o 9 %.<.Z &.<.V J.7X).K   O @           j n.=.5.~.x U l 9 G.W i r.",
"i.i.i.i.i.w.w.i.i.q.i.w.w.=.i.s.d.s.f.w.j.x.c.w.d.f.p.xXw xXiX  o @ 3 k z k a ; : O     @ @             Z n.-.2.2.Y Y 8 3 G.&.0.",
"C l.i.w.i.>.=.q.q.w.i.s.:.i.s.q.i.q.w.s.i.N.I.p.d.d.p.mX* pXFX          O # o           3 ,               ,.n.@.8 , H 0 G l H.@.",
"#.q.q.f.$.a >.=.i.f.i.i.q.:.V #.=.i.i.i.f.x.V.j.d.p.k.[ r   FXX.  o                     9 ,               + b.t.j 8 O Y Y 3 Q J.",
"c :.>.a 3 : c j.>.$.p.-.q.$.: > b >.i.s.j.d.9.w.d.d.l.I O.y w FX0                       9 O                 2 n.+.6 I O Q e 2 G.",
", ;.;.i p d : ;.p @ ;.q.i.f .   . a i.d.i.i.d.p.i.i.q.8. .aX  o.GXd O                 > k                     i u.; l 7 : Y 8 9 ",
"o b j.;.3 x @ C . p #.s.h.V     2 #.i.d.i.k.i.i.:.:.i.k.{.aXkXX GX(.g p % O % @ @ # . > .                   .   *.M # 5   D Q 8 ",
"  #.j.v   . . #.: # V d.#..     @ ;.d.d.d.h.h.p.:.:.h.:.A.T FXlX_ kXo   . o , B x                           : o ; h.O 5 O o U D ",
"o $.d.4       p O   4 d.:       . $.l.:.>.p.d.i.i.i.:.p.p.w.8.HXkXX.sXaXe - 2 N :                           p 4   @.g   6   G K ",
"j :.>.i     , 2     < i.c         $.l.:.>.:.s.i.i.=.=.i.i.i.9.v.8.{.PXsX5 z . j 3                           a s   3 x   $ X . 8 ",
"#.i.w.:.a O m $.O + v l.;.2 ; 1 a $.d.f.f.d.d.i.i.=.=.:.:.-.i.i.*.(.PXw ..r   V 4                           b f < x ,   #     0 ",
"1 f @.:.$.v ;.;.#.$.;.@.M C B c #.=.i.f.d.p.i.i.i.i.:.=.p.l.-.M c Y DX^ FX& - *.-                           +.v O k K q * 7     ",
"    . 1 i i u u u 4 1 + O   - - i >.*.>.>.i.l.w.i.p.i.:.;.;.M c 1 q dXlXDX  n -..                         % @.+.  x } 3X' t   o ",
"        . + + ; 1 - O + - .     c +.u ; m +.d f v ; 1 1 1 1 s d +   nXPXpX  -.*.                          O @.9.+.8.2X_.2X_.q   ",
"          . . - + O O . . . O O ; O     - M .         . u c M +.+.g kXPX .. y.m                           + @.0.t.<.E _._._.' * ",
"            O d O       . . .             : O         4 M m M v 1 . iXPX/ ; b.g         : o               + -.9.0.1 * _.2X} E w ",
"    4 4 +   2 c .   .   . O .   .                   - v u 4 $.f     _ PXw { N.4         d @               O *.t.-.H } 2X' E } E ",
"    ; $.v 4 u s -         . .       .               , .     B b     r PX` dXA.;         n ;               + +.*.*.2X2Xq t _.' } ",
"      d #.f f g v v 4 . . . . . . O   < +                   O p     y KXkXxX-.@         M 4               + 3 4 <..Xq o .X_.) } ",
"      - M N f n M M p O . O .     .   C :                 .   . .   & KXUXnX*..         +.f               O + i S & & } 2X2XJ } ",
"    - d n v g v ;       . . a m s O f $..   .             . .       # FXPXmX+.          +.M               o g &.> o } } } ' q 2X"
};
