/* XPM */
static char *_9948_23cac2cffdd80660c9f1e3112442c0fc8077f30d94a60f2c10b88bf2bf5abb5a[] = {
/* columns rows colors chars-per-pixel */
"64 64 251 2 ",
"   c #0F0E11",
".  c #110F13",
"X  c #131215",
"o  c #15141A",
"O  c #19161B",
"+  c #1C191D",
"@  c #1A1616",
"#  c #0E0D0F",
"$  c #221D1C",
"%  c #291F1E",
"&  c #28211E",
"*  c #1D1C22",
"=  c #1E1E28",
"-  c #211E24",
";  c #251F25",
":  c #1F2126",
">  c #242225",
",  c #2C2523",
"<  c #24242B",
"1  c #2A262B",
"2  c #2C292C",
"3  c #2B2927",
"4  c #332924",
"5  c #342C2B",
"6  c #372B28",
"7  c #3C322C",
"8  c #353B29",
"9  c #2C2B32",
"0  c #282631",
"q  c #322E34",
"w  c #392F31",
"e  c #343135",
"r  c #3C3433",
"t  c #33333A",
"y  c #3A383A",
"u  c #2D352C",
"i  c #42342D",
"p  c #473628",
"a  c #433633",
"s  c #453935",
"d  c #4B3D34",
"f  c #433C3B",
"g  c #4A3E3B",
"h  c #513F38",
"j  c #35432A",
"k  c #3D4B2B",
"l  c #394726",
"z  c #3E5429",
"x  c #3A4832",
"c  c #31401F",
"v  c #424A2D",
"b  c #43542B",
"n  c #465A2A",
"m  c #4D413B",
"M  c #464A39",
"N  c #53443C",
"B  c #59483C",
"V  c #455433",
"C  c #4B5936",
"Z  c #555A3A",
"A  c #534C2B",
"S  c #634D3A",
"D  c #69553D",
"F  c #4B642B",
"G  c #4B6434",
"H  c #566837",
"J  c #5A7337",
"K  c #536A2B",
"L  c #666B3A",
"P  c #667739",
"I  c #747839",
"U  c #3D3B42",
"Y  c #3C3B47",
"T  c #433E44",
"R  c #463F43",
"E  c #454244",
"W  c #4C4444",
"Q  c #4B454B",
"!  c #47454C",
"~  c #5C4C44",
"^  c #534C4B",
"/  c #564A45",
"(  c #495845",
")  c #5A554A",
"_  c #494A54",
"`  c #5C5353",
"'  c #56545B",
"]  c #534D52",
"[  c #604F45",
"{  c #63544B",
"}  c #695647",
"|  c #755C47",
" . c #645954",
".. c #6C5C53",
"X. c #645C5C",
"o. c #675B58",
"O. c #715F55",
"+. c #596845",
"@. c #5C7345",
"#. c #5C6856",
"$. c #596E52",
"%. c #646C46",
"&. c #7A6649",
"*. c #687747",
"=. c #767949",
"-. c #6B6657",
";. c #74645B",
":. c #7C695B",
">. c #776456",
",. c #697757",
"<. c #737856",
"1. c #595964",
"2. c #635E63",
"3. c #6B6468",
"4. c #7A6D6B",
"5. c #776A65",
"6. c #7D726C",
"7. c #7A7865",
"8. c #686977",
"9. c #797376",
"0. c #6C736C",
"q. c #85674C",
"w. c #846D5B",
"e. c #876B54",
"r. c #8B725C",
"t. c #947658",
"y. c #8D734F",
"u. c #82736A",
"i. c #897769",
"p. c #937D6C",
"a. c #997C64",
"s. c #8B7B73",
"d. c #847978",
"f. c #927E73",
"g. c #826E61",
"h. c #977359",
"j. c #73823C",
"k. c #5F853D",
"l. c #688347",
"z. c #788748",
"x. c #7A954C",
"c. c #7A8657",
"v. c #7B9656",
"b. c #6E8859",
"n. c #778868",
"m. c #788F6D",
"M. c #7FA76B",
"N. c #8B8B3D",
"B. c #878948",
"V. c #88974C",
"C. c #878A59",
"Z. c #958859",
"A. c #899957",
"S. c #969859",
"D. c #999547",
"F. c #A69B5B",
"G. c #A59352",
"H. c #8AA55B",
"J. c #98A85A",
"K. c #9AB459",
"L. c #97AD4B",
"P. c #A5A75B",
"I. c #A5BA59",
"U. c #B3AD55",
"Y. c #868965",
"T. c #988767",
"R. c #8A9666",
"E. c #969865",
"W. c #8B8379",
"Q. c #948275",
"!. c #998779",
"~. c #919878",
"^. c #A58768",
"/. c #A69968",
"(. c #A58D78",
"). c #A89577",
"_. c #B89777",
"`. c #B6906B",
"'. c #89A767",
"]. c #9AA867",
"[. c #98B568",
"{. c #9AA975",
"}. c #98B677",
"|. c #8AAC6C",
" X c #A6A868",
".X c #B7A867",
"XX c #A6B868",
"oX c #A7A875",
"OX c #B4A975",
"+X c #A7B777",
"@X c #B4BA76",
"#X c #B9B667",
"$X c #C9AF7C",
"%X c #C6AE69",
"&X c #B6C76D",
"*X c #A8C476",
"=X c #B4C679",
"-X c #B3CD71",
";X c #A4C36D",
":X c #C7CC73",
">X c #747686",
",X c #697086",
"<X c #857D81",
"1X c #7E839C",
"2X c #8B8585",
"3X c #998B85",
"4X c #9A9587",
"5X c #929091",
"6X c #A28E82",
"7X c #A59284",
"8X c #AD9B8D",
"9X c #A89688",
"0X c #B39C86",
"qX c #AB9C93",
"wX c #A49794",
"eX c #B29F93",
"rX c #96B08A",
"tX c #A6A98B",
"yX c #BAA68A",
"uX c #B8B988",
"iX c #ABA297",
"pX c #B7A599",
"aX c #B6BA94",
"sX c #A8B68B",
"dX c #9598A8",
"fX c #8F96AD",
"gX c #9AA4AF",
"hX c #B9ABA6",
"jX c #B2ADAD",
"kX c #A99DA1",
"lX c #C3AC97",
"zX c #CCB28D",
"xX c #C8B7A7",
"cX c #C6B8B5",
"vX c #C99D84",
"bX c #BAC686",
"nX c #B3C989",
"mX c #BAC1B9",
"MX c #C8C58B",
"NX c #D5CB8C",
"BX c #C8C996",
"VX c #D7D694",
"CX c #D1D18C",
"ZX c #E5D791",
"AX c #E7E297",
"SX c #F0E395",
"DX c #D1C7AE",
"FX c #E7D6AF",
"GX c #E6DDCF",
"HX c #D9D3CD",
"JX c #ADB7C1",
/* pixels */
"k.k.k.F j j j j j j l k b n G H k.l.v.'.|.;X*X*X-X-XCXVXAXAXVXSXSXSXZXNXNXNXNXCX:XSXSXSXAXAXVXVXNXMXMXuXsXtXsXaXxXnXnXtXiXtX4X4X",
"G J J G x j j j j j l l l k z C ( @.l.b.'.}.nX-XnXnXVXVXAXAXVXVXVXCXzXuXOXzXzXMXNXZXZXAXAXVXCXMXuXuXuXaXaXaXaXBXDXVXMXaXaXtXtXtX",
"z z z x j 8 j j j j l j j l z G H J l.v.[.*X-X-X-XCXVXVXAXVXBXbXsX2X4X0.1X9.W.W.3XuXNXZXZXMXzXuXuXaXbXMXBXbXBXVXVXVXCXMXzXsXtXrX",
"G G k j 8 j j l l z b k z z F G J J k.x.H.;X:XCX:XCXnXnXbXbXaXdX5X8.1.' ` ' ' 1.8.9.3XaXNXMXMXNXMXMXuXbXBXBXVXBXBXCXCXMXMXuX4X4X",
"@.G V l 8 k k b n C n n n F F K J P k.j.x.H.I.-X-X-X@X=XbXiX5X8.8._ Y ! U ! E _ ' ' 2.9.pXVXZXZXZXVXBXBXCXVXDXBXBXbXBXBXMXsX{.m.",
"$.$.H M v x z b n n n n z z z F K J P P k.k.x.v.K.[.K.=XrX>X1.! Y U q t y U Y ! ! _ ' 1.9.iXZXSXSXVXDXmXmXjXgXfXfXfXgXfXgXiX5X5X",
"@.@.J H C V V V C C V k l l z F G J J J F F J k.x.x.;X}.,X' U q q q f y e r U T R Q ' ' 3.9.xXGXHXJXgXfX1X>X,X,X,X,X,X8.,X,X1X1X",
"@.k.P J H C C V x V V V b A H K G G F F z z J l.k.v.}.1X_ y 9 1 5 5 w r w w y y y f g ^ ' 1.2XjXdX5X>X,X,X,X>X>X,X>X>X,X8.8.1.0.",
"K K K K F H n b ( ( Z C C H =.=.*.H V k k z H l.x.].tX8.R R a i 7 i i h ~ h / h h s f W ` X.5.qXHXHXcXhXkX<X<X<X>X8.9.8.,X>X8.8.",
"n F F z F n n Z L *.%.H H %.=.C.z.%.Z M V C J b.H.@X7X2.{ R ~ R ~ ~ ~ [ } >.w.w.:.| { ~ ~ { 5.s.hXGXGXGXHXcXkX<X<Xd.d.8.4.2.3.d.",
"z l z z n n Z L =.=.I P J =.C.S.C.=.%.( ( ( @.z.J.aX6X;.O.{ O.g.>.w.r.>.e.w.p.^.p.e.>.w.{ ..;.u.<XcXDXGXHXcXxXqXf.d.<X9.u.8.1.2.",
"z l c l b b n =.N.j.j.P R.tX9X!.T.z.*.) ( +.@.l.}.lXf.w.O...w.g.p.p.(.(.(.p.!.7X7XQ.g.:.;.O.O.5.a.<XlXcXcXFXcXlX6X9.2.2.2.2.3.3.",
"C j u c l b n P j.j.P R.qX4.;.3.u.c.*.%.( +.>.7XDX0Xi.>.q.q.e.a.a.(.(.0XlX0X9XqXpX8X3XQ.!.i.w.O.g.u.<XxXxXxXDXcXpX<X3.2.' R 1.X.",
"+.( j 8 8 l A H P P I Y.o.d d ) / s.C.z.<.Y.xXFXvX).(./.`.`.`.a.^.(.(.vX!.4.5. .u.pXpX(.(.a.p.:.w.w.a.<XlXxXxXcXhXwXu.2.' R R R ",
"+.+.z j 8 l b F K H %.Y.N , % r f ~ ~.yXDXFXFXZX$X_.`._.`.zX$XzXZXxXzX6X . .s s / d.qX!.!.f.p.i.g.q.h.<X6X6XeXxXcX8Xu.3.X.' ] R ",
"%.J F b b b b b n n H <.m % X & , w { 4.(.zXzXvX$X^.a.^.a._.%X%XvX(.p.[ W g ; 7 h { Q.a.T.p.p.g.O.O.{ w.f.f.f.lXxXhX<Xg.3.2.R 1.",
"H J K n n n l l l z G <.m & . X $ $ 7 h t._._._.vX_.e.a._._.`.`.h.} h 6 , % @ % i ~ i.e.e.e.g.>.{ [ N [ u.f.f.7XlXlXeXu.2.X.R R ",
"K K F F n n l l l k Z -.m & X X @ # % } `._.vX$X0Xa.h.^._._.`.`.q.p 6 $ O + @ 4 i B !.p.>.>.{ { [ R N h O.g.<Xf.7X7XeXf.X.X.` R ",
"K F K L L n v 8 8 k C %./ , @ 4 p 6 S t._.yXlXvX6Xh.e.p.(.0X_.t.h.h % @ + + $ % r ~ ).`.q.w.>.[ [ R h N ~ ..g.i.p.<X0X<X3.X.X.R ",
"J P I N.D.y.A v l v b C <.m & p D t.`._.eXpXlXxXvX0X9X8XeXpX0Xa.h.q.S p i 4 @ % a Q.vX0Xq.[ } { } h h p h R  .O.;.f.8X8Xg.` R ] ",
"N.N.D.G.F.G.y.Z v v V +.Q.{ h e._.(.f.3XeXqXhXqX8XqXeXeXqXqXeX6Xa.a.a.h.y.S % , } yXlX_.^.[ ~ } [ [ R h p a R h  .g.f.9Xd.] R ` ",
"D.D.U.U..X/.F.B.L C Z Q.u.{ a.zX0Xf.2X5X3XwX3Xd.<XqXqXwXwXqXqX9X6Xf.h.h.^.t.S a [ (.lX0X).w...O.[ ~ ~ ~ h i a h [ 4.!.6Xf.o.R R ",
"D.G.U.U.%XU.F.G.y.+.*.9X..p.yX(.(.3XwXqXqX5X<Xd.<XwX3X3XwXwXwXqX7X(.a.} y.`.i.~ R 5.xXeX0Xf.O.i.| [ ~ [ ~ a , a ^ o.u.f.6X5.W a ",
"N.N.U.%X%X#XF.F.S.c.T.!.w.yXa.>.p.6XhXeXeXwXd.d.d.2Xd.d.3X4XeXeXqX7X(.i.r.h._.p.g ~ yXxXeX7XO.O...[ [ [ ~ i i a / 2.9.f.!.s.X.^ ",
"D.N.D.U.%XU.P.E./.E.oX(.Q.`.| :.9XqXqX9X3X2Xd.3.5.4.9.s.s.<XpXpXeX8X(.f.(.a.`.0X .{ 6XxX9X9X5...B ~ ~ N ~ 7 6 g ` o.5.d.6Xs.o.] ",
"D.N.I D.J././. X@XoXoX).T.q.O.p.p.Q.3XwXqX7Xd.5.9.d.s.!.3X6X7X<Xf.3X!.!.f._.a.a.>.O.(.lX7Xp.O.{ d N N / { 4 & a ` o.5.u.6X6X3./ ",
"=.%.H %.<.c.C.{.+XoXE.).^.q.i.r.p.i.(.9XpXpX!.4.u.9.s.!.3X7X7X(.s.u.s.i.a.a.^.h.e.>.f.pXf.../ h 6 i i h { 7 % 6 R ` o.5.!.qXu./ ",
"Z C ( #.,.<.c.R.E.].E./.t.t.t.>.:.5.i.!.9X7Xu.g.d.5.s.s.f.7X6X!.f.u.g.;.r.a.a.a.q.>.a.0X:.N i 6 6 4 6 a B 7 , r f W  .5.f.8Xu. .",
"+.( ( #.0.,.b.n.n.C.c.Z.t.y.a.i.>.>.u.i.g...N { 5.5.5.{ B ..:.g.u.g.O.w.w.h.r.q.t.w.w.p.{ i 4 $ , 5 6 7 N s & a W ^ o.4.!.eXs.` ",
"%.%.+.#.,.0.0.$.,.%.*.c.^.e.a.O.~ / ~ / R 4 % i O.5.{ 6 $ 4 f / { { [ | w.w.e.q.t.| :.w.N , > % $ , , 5 i 6 & 7 m ^ ` 3.s.qXu.5.",
"%.%.%.$.,.b.0.,.#.+.+.<.T.q.e.B m m g r e 3 , h 5.5...i , 9 w w R R h [ } O.q.e.t.| i.} r + $ ; & $ $ , 6 4 & 5 f ^ ^ X.Q.8Xi.5.",
"L @.@.@.,.b.m.n.,.$.+.*.Z.Z.r.N a m W W r r ^ 5.g.4.s.O.W r w a R R R h ~ O.q.h.q.| >.) , @ $ > + @ + , r 5 , 5 r W ^ ` s.9XW.7.",
"L J H J J l.m.m.m.<.,.*.=.).T.S s a a g a R i.<X7X7X9Xf.o.a w g R h h h a :.| q.&.} B s + + ; O O O ; 4 f r , , 7 g / ' u.7X4.o.",
"I J H K J *.b.m.m.b.<.=.*.~.!.w.g 6 , 6 a | f.eXxXxXwXf.;.g a f h d a i i q.q.q.&.~ a @ . $ o . . $ $ ; f 7 > + + 5 f ` u.9X;.3.",
"x.P n n n H *.b.m.c.<.l.Y.W.` ;.>.d 4 i h w.eXhXhXhXeX6Xi.~ d a a 6 w , p q.q.| &.5 o X o . . $ + O ; a R a 5 O + ; r Q 5.9X5.{ ",
"N.H n l z G *.,.c.b.b.c.Y.7.! f { :.h i R p.eXkXcXcXqX7Xp.} N g a 6 % 4 S q.q.D i @ o + . . * 9 q 2 q R g 5 ; $ - > a / o.7X6.-.",
"I H F n n H %.b.<.=.=.<.n.-.R e 9 y ..~ [ f.pXcXcXcXjXqX(.| g a p 4 4 S q.q.} d X X + + o * 9 9 e U R Q R > + $ , e f ` 5.W.;. .",
"*.@.J H H L <.C.C.C.<.z.C._ T q 2 - a ) e.f.lXhXkXjXhXeXf.>.[ d p p S | | } i @ X o O o * 9 t 9 t Q Q t t - o * 1 e R ` 5.d.` W ",
"c.c.<.*.=.=.S.XX XE.c.z.Y.W T Y 3 * + 5 g.p.kXcXkXcXcXkXi.r.>.[ B S D S h % # . o o o : 2 0 9 9 t T T ; ; $ O O > q W ` 4.u.m 3 ",
"{.|.R.V.V.G.#X$X#X].C.V.c.E U y q < > < h.<X<XkXdXdXkX<Xg.p.r.} d p % $ @ X X X o + + < < < 9 9 Y U 0 o o $ O ; q y E ' 6.6.7 & ",
"=X*X+XXXP.#X:X:X:XP.V.V.Y.E y q q < < < ^ W.0.>X>X,X>X>Xu.f.O.s @ $ . # . . . . o - * 1 < = t t U t *   . + + ; q q R ` d.o.; ; ",
"=X*X*X*X;X&X:X:X-XXXA.H.R.Q t q t 3 > : 2 d.3.U 1 1 1 ^ 3Xu./ + # @ @ . . . . o + O - < * = 0 t t 0 . # X O O * 1 q R X.u.] % 4 ",
"XXXX*X[.*X=X:XCXMX-X[.].R._ y t e 9 : : < 4.u.r 1 ; 5  .f.` , . . O O @ . . . . o o * < < 0 < 9 t * # # X O O = ; 9 Q 3.6.5 $ @ ",
"]. X{.].].XX*X-X=X=XXX].W.E E y t 9 : * * / 7X2.T y ` 2X .< o . # O - O . . X . . O > 0 0 t 9 < 0 < O O * o o * - 2 R 3.3.& # X ",
"E.].E.E.E.].E.J.K.XX.X X7.T U t 9 < < > X 5 W.5X9.2.2X<Xq O X . # o ; - X X o X o O * < < 2 : * * = t < < * O * 1 q R 3.` $ X X ",
" X/.oX{.oX).E.]. X.X X.X7.! U Y e 1 0 2 O 0 _ 9.5.3.9.! < O X . . o 1 ; - * * X O O = < : < : : * : < 9 9 < * * - t E 3.Q & @ + ",
"oX XoXoXoXtXoXoXOX.XOXOX7._ Y Y U 0 < 0 : > < E T E U > O o X X .   - 5 ; ; $ $ * * * : * = < < 0 9 < 0 < = * > 1 t ] 3.x + @ + ",
"/.oXoX+XuX@XOXoXE.E.+XyX3.! _ ! Y t < < : * * 0 < ; - O o o X X .   O 5 1 ; - - * * < : : < : * * 9 9 < O o . - q U ' 3.e + @ @ ",
"E.~.{.oX}.oX/.S.T.E.oX(.1.Y Y Y t t = < < * < 9 : O & O + O O @ ; $ + 4 5 5 > ; = - = > : = * o X o * = o X o * < 9 ! 2.3 X @ + ",
"C.E.E.{.E.S.S.R.~.E.R.0._ t t 9 < t : < = * 0 9 : > 3 + $ % $ 4 S S A } N s q 2 - - > > - O O o o * . X o X * = 0 9 ! ] > @ $ 3 ",
"].P.+XsX{.E.E.C.A.R.7.] _ E *.r * < < : < = < 0 < 2 1 > & & 7 %.e.^.T.^.T.-.g 5 < < = * O o . o o o o o o o = 9 t t _ ! + O > 3 ",
"J.J.XX+XXXJ.T.C.T.R.' _ _ E B.Z < 0 9 < < * = < < 3 3 7 L L B i.!.).).).).T.:.w > 1 > o o * * O o o o o o = < 0 < 9 E u + & 3 7 ",
"XXXX;XXX XoX8XiX9X~.' _ 1.{ S.=.B e 0 : * > * 2 > M ,.z.I z.D r.r.e.| | [ | 5.R , 3 ,.y O = - * o o o o = * < u 9 9 W ` N -.5.9.",
"[.XXV./.OX).yX0X9X9._ $.~./.%XG.Z x e > > * - y > v ].#XI V.B.`.$XvX`._.`.a.o.T 3 > +.x = = > = = o o o = = < < 0 e -.3X6.wXjXjX",
"*X;Xx.Z.E.R.E.Z.T.{ 0.rX+XOX.XL.N.z.L b ( y > ) M n.J.&X=XP.P.:XBXDXxXlXpX(.,.W 3 p L u = < < ; = = o o * = 0 < < y :.~.7.W.2Xd.",
"I.K.V.R.|.rX|.oXoX<.m.R.].L.#XI.I.H.c.=.E.] , r } c.+XI.=X[.&X@XOXsX@XQ.6.Y.J.P v p B.A x < 0 t _ u = = * = = 9 9 E Y. XC.;... .",
";XK.J.C.M.M.*XCX&XsXnX*XK.L.K.-XXXj.C.m.A.x < Z S.+XnXV.K.[.[.].E.~.].r.Y.].XXJ.J +.H C M < 8 G v.x O = * < < 9 9 ) S.B.&.B h B ",
"-X*X[.x.k.v.nX-X&X+XnX[.[.K.K.;X+XN.L.}.rXm.x ` sXuXA.z.x.R.|.R.E.R.=.E.].].[.'.,.}.[.V < < H V.|.j = 1 : : 0 9 y <.C.B.D 8 4 % ",
"}.|.[.R.x.|.nX-X-X&XS.V.'.K.K.K.*XK.L.A.M.H.J ,.+X].V.V.H.[.'.A.A.A.S.E.S.z.V.H.'.v.H.( < x k.x.l.3 C f < < 0 0 E &.L =.B B p p ",
"M.v.'.'.H.H.XX&X-X-XJ.V.H.K.;XL.I.@XXXz.H.I.[.E.{.J.[.P.A.|.].].].S.E. X].b.c.c.|.v.*.C t k A.|.$.u C 0 < 0 < 0 ( Y.z.B.&.&.A A ",
"v.M.H.J.J.D.#XCX:X&XK.L.K.I.&XI.I.#XI.P. X%X.XY.{.{.oXuXuXXX{.nXnX}.'.+X*X}.b.@.'.v.v.m.1XG v.M.( j x = < Y 9 q <./.Z.=.T.^.Z.G.",
"l.v.B.J.P.F..X@XbX=XK.L.I.;X=XI.L.I.U.S.)._..XOXDXNXuXyXP.P.].+X}.*X[.}.nX}.|.v.z.H %.) x C k.b.M.v.$.< < #.' x Z L B.=.=.y.t.^.",
"V.V.V.P. X/..XzXBXnX[.S.H.H.J.V.V.H.E.S.E.t.Z.^.$XNXMX.XZ. XP. X+X*XH.[.}.}.'.x.%.+.I Z $.n.l.b.M.b.,.Y 3 ! -.H b A L <.L =.Z.Z.",
"L =.S. XS.XX#X%X@XXXJ.D.V.A.x.x.z.V.S.E./._.^.$X$X/._./.E.oX:X X@X@XA.nXnX}.}.}.R.{.y.E.rX}.l.( $.x x u > r 0.m.%.L <.L A L =.=."
};
